<?xml version="1.0" encoding="UTF-8" standalone="no"?><!DOCTYPE svg PUBLIC "-//W3C//DTD SVG 1.1//EN" "http://www.w3.org/Graphics/SVG/1.1/DTD/svg11.dtd"><svg width="100%" height="100%" viewBox="0 0 1721 1705" version="1.1" xmlns="http://www.w3.org/2000/svg" xmlns:xlink="http://www.w3.org/1999/xlink" xml:space="preserve" xmlns:serif="http://www.serif.com/" style="fill-rule:evenodd;clip-rule:evenodd;stroke-linecap:round;stroke-linejoin:round;stroke-miterlimit:1.5;"><rect id="Artboard1" x="-2060.42" y="-1327.08" width="5691.67" height="4266.67" style="fill:none;"/><g><path d="M866.016,228.148l1.871,154.144c0.777,22.349 -188.592,-23.603 -228.796,-110.724c-16.042,-34.764 47.318,-99.112 42.302,-118.555c-0.79,6.947 98.122,76.588 184.623,75.135Z" style="fill:#7a2c22;stroke:#f3d2c1;stroke-width:63.52px;"/><path d="M890.506,225.129l-1.68,133.275c-0.698,19.324 169.388,-20.407 205.498,-95.734c14.408,-30.057 -42.5,-85.694 -37.994,-102.504c0.709,6.006 -88.131,66.219 -165.824,64.963Z" style="fill:#7a2c22;stroke:#f3d2c1;stroke-width:63.52px;"/><path d="M627.566,271.059l4.315,572.216l213.154,1.804l-2.044,-481.118c-85.992,-8.634 -164.189,-41.848 -215.425,-92.902Z" style="fill:#60a917;stroke:#f3d2c1;stroke-width:63.52px;"/><path d="M1101.43,274.686l-4.4,555.471l-217.406,1.751l2.084,-467.038c87.708,-8.381 167.464,-40.624 219.722,-90.184Z" style="fill:#7a2c22;stroke:#f3d2c1;stroke-width:63.52px;"/><path d="M858.807,1520.72l-0.312,108.278l-420.335,1.508l-0.741,-106.317l421.388,-3.469Z" style="fill:#7a2c22;stroke:#f3d2c1;stroke-width:63.52px;"/><path d="M886.563,1514.99l1.355,113.47l400.685,1.643l0.706,-115.798l-402.746,0.685Z" style="fill:#7a2c22;stroke:#f3d2c1;stroke-width:63.52px;"/><path d="M447.145,975.191l0.102,225.738l403.597,4.896l1.009,-69.131l-404.708,-161.503Z" style="fill:#01091b;stroke:#f3d2c1;stroke-width:63.52px;"/><path d="M605.669,843.582l0.115,-574.832c0,0 -313.272,75.254 -289.85,104.095c33.501,41.251 114.102,253.575 98.079,248.999c20.267,76.253 31.955,149.851 33.883,220.428l157.773,1.31Z" style="fill:#fc7070;stroke:#f3d2c1;stroke-width:63.52px;"/><path d="M966.942,833.178l166.358,-554.606c0,0 285.862,73.167 264.49,101.208c-30.57,40.108 -104.119,246.545 -89.497,242.096c-18.494,74.139 -29.16,145.696 -30.919,214.316l-310.432,-3.014Z" style="fill:#fc7070;stroke:#f3d2c1;stroke-width:63.52px;"/><path d="M182.964,606.906l115.438,-212.094c0,0 124.907,299.583 94.485,360.085c-30.423,60.502 -42.765,80.2 -42.765,80.2l-167.158,-228.191Z" style="fill:#01091b;stroke:#f3d2c1;stroke-width:63.52px;"/><path d="M1536.94,609.356l-115.439,-212.094c0,0 -124.907,299.583 -94.484,360.085c30.422,60.502 42.765,80.2 42.765,80.2l167.158,-228.191Z" style="fill:#01091b;stroke:#f3d2c1;stroke-width:63.52px;"/><path d="M79.534,1039.52l205.369,-2.205l2.984,-83.395c13.934,-49.351 27.118,-77.119 39.725,-88.235l-167.483,-227.143c-30.515,45.436 -54.506,98.741 -72.421,159.374l-8.174,241.604Z" style="fill:#fc7070;stroke:#f3d2c1;stroke-width:63.52px;"/><path d="M1626.08,1037.58l-205.369,-2.206l-2.984,-83.394c-13.933,-49.351 -27.118,-77.12 -39.725,-88.235l167.483,-227.144c30.515,45.437 54.506,98.741 72.421,159.374l8.174,241.605Z" style="fill:#fc7070;stroke:#f3d2c1;stroke-width:63.52px;"/><path d="M73.328,1191.1l2.432,251.674l178.286,-1.084l3.726,-132.103l-184.444,-118.487Z" style="fill:#01091b;stroke:#f3d2c1;stroke-width:63.52px;"/><path d="M1636.21,1181.02l-2.432,251.675l-178.286,-1.085l-3.725,-132.103l184.443,-118.487Z" style="fill:#fc7070;stroke:#f3d2c1;stroke-width:63.52px;"/><path d="M79.451,1074.46l1.55,79.091l186.229,122.71l9.39,-201.893l-197.169,0.092Z" style="fill:#7a2c22;stroke:#f3d2c1;stroke-width:63.52px;"/><path d="M1632.2,1064.58l-1.625,79.092l-195.334,122.709l-9.85,-201.893l206.809,0.092Z" style="fill:#7a2c22;stroke:#f3d2c1;stroke-width:63.52px;"/><path d="M104.493,1476.89l114.034,0.184l4.31,85.276l-116.096,0.185l-2.248,-85.645Z" style="fill:#7a2c22;stroke:#f3d2c1;stroke-width:63.52px;"/><path d="M1594.78,1464.4l-114.02,-1.811l-0.415,85.289l114.473,0.581l-0.038,-84.059Z" style="fill:#7a2c22;stroke:#f3d2c1;stroke-width:63.52px;"/><path d="M448.085,875.169l1.591,72.035l402.27,151.076l0.69,-224.266l-404.551,1.155Z" style="fill:#60a917;stroke:#f3d2c1;stroke-width:63.52px;"/><path d="M1082.2,862.256l1.273,347.474l-228.366,0.774l-1.044,-349.328l228.137,1.08Z" style="fill:#7a2c22;stroke:#f3d2c1;stroke-width:63.52px;"/><path d="M1275.21,866.317l1.115,342.569l-200.007,0.763l-0.914,-344.397l199.806,1.065Z" style="fill:#60a917;stroke:#f3d2c1;stroke-width:63.52px;"/><path d="M452.009,1227.53l141.847,1.473l4.072,265.219l-149.318,0.159l3.399,-266.851Z" style="fill:#01091b;stroke:#f3d2c1;stroke-width:63.52px;"/><path d="M1279.21,1234.36l-137.623,1.472l-3.951,265.219l144.872,0.159l-3.298,-266.85Z" style="fill:#01091b;stroke:#f3d2c1;stroke-width:63.52px;"/><path d="M854.459,1231.86l4.885,266.386l-229.565,-1.937l-3.558,-265.15l228.238,0.701Z" style="fill:#60a917;stroke:#f3d2c1;stroke-width:63.52px;"/><path d="M875.085,1246.44l2.369,257.405l229.565,-1.87l3.557,-256.026l-235.491,0.491Z" style="fill:#60a917;stroke:#f3d2c1;stroke-width:63.52px;"/><path d="M1043.68,152.549c2.894,-2.721 -11.394,-15.202 -12.981,-17.022c-18.609,-21.329 24.192,16.269 -0,0c-74.819,-50.312 -220.139,-61.182 -313.903,-7.553c-20.795,11.893 -24.693,29.957 -16.1,49.976c7.92,18.451 40.818,26.711 64.342,31.157c79.522,15.029 152.387,14.25 220.074,-7.365c24.784,-7.914 73.794,-24.169 58.568,-49.193c-3.607,-5.928 5.642,5.043 0,0Z" style="fill:#01091b;stroke:#f3d2c1;stroke-width:63.52px;"/></g></svg>