<?xml version="1.0" encoding="UTF-8" standalone="no"?><!DOCTYPE svg PUBLIC "-//W3C//DTD SVG 1.1//EN" "http://www.w3.org/Graphics/SVG/1.1/DTD/svg11.dtd"><svg width="100%" height="100%" viewBox="0 0 975 1328" version="1.1" xmlns="http://www.w3.org/2000/svg" xmlns:xlink="http://www.w3.org/1999/xlink" xml:space="preserve" xmlns:serif="http://www.serif.com/" style="fill-rule:evenodd;clip-rule:evenodd;stroke-linecap:round;stroke-linejoin:round;stroke-miterlimit:1.5;"><rect id="Artboard4" x="-2040.59" y="-1529.38" width="4969.83" height="4374.33" style="fill:none;"/><g><path d="M233.934,132.17c-135.129,376.824 -155.347,771.486 -186.944,1154.61c-0.529,6.37 1.621,12.672 5.933,17.391c4.312,4.719 10.395,7.427 16.786,7.473c68.345,0.497 258.702,1.881 322.493,2.344c11.942,0.087 21.949,-9.011 22.995,-20.907c9.799,-111.376 55.579,-631.708 67.494,-767.128c0.132,-1.504 1.39,-2.658 2.899,-2.661c1.51,-0.003 2.772,1.146 2.911,2.65c12.44,135.205 60.19,654.171 70.358,764.678c1.083,11.774 10.945,20.791 22.768,20.817c63.385,0.143 253.506,0.573 320.895,0.725c6.267,0.014 12.265,-2.538 16.6,-7.063c4.335,-4.525 6.628,-10.628 6.346,-16.888c-18.081,-395.34 -64.146,-775.155 -186.097,-1156.73l-505.437,0.691Z" style="fill:#147d51;"/><path d="M485.647,551.774l68.025,739.322c1.33,14.449 13.433,25.515 27.943,25.548c63.385,0.143 253.507,0.572 320.896,0.724c7.69,0.018 15.052,-3.115 20.372,-8.668c5.321,-5.553 8.135,-13.043 7.788,-20.726c-0,-0.001 -0,-0.002 -0,-0.003c-18.102,-395.802 -64.245,-776.056 -186.339,-1158.08c-0.691,-2.161 -2.7,-3.626 -4.968,-3.623l-505.437,0.691c-2.196,0.003 -4.154,1.383 -4.896,3.45c-135.285,377.261 -155.598,772.37 -187.232,1155.94c-0.648,7.812 1.989,15.544 7.279,21.332c5.289,5.789 12.752,9.111 20.593,9.168c68.346,0.498 258.702,1.881 322.493,2.344c14.656,0.107 26.937,-11.059 28.221,-25.659l65.262,-741.761Zm-248.042,-414.4l497.962,-0.681c120.943,379.908 166.696,758.127 184.698,1151.75c0.218,4.837 -1.554,9.552 -4.903,13.049c-3.35,3.496 -7.986,5.469 -12.828,5.458l-320.895,-0.725c-9.136,-0.021 -16.757,-6.988 -17.594,-16.086c-10.168,-110.507 -57.918,-629.473 -70.358,-764.679c-0.385,-4.187 -3.902,-7.389 -8.107,-7.38c-4.205,0.008 -7.709,3.224 -8.077,7.413c-11.915,135.419 -57.695,655.752 -67.494,767.127c-0.809,9.193 -8.541,16.223 -17.769,16.156c-63.791,-0.464 -254.148,-1.847 -322.493,-2.344c-4.942,-0.036 -9.645,-2.13 -12.979,-5.778c-3.334,-3.649 -4.997,-8.522 -4.588,-13.447c0,-0.001 0,-0.002 0,-0.003c31.465,-381.51 51.562,-774.487 185.424,-1149.83l0.001,-0Z" style="fill:#f3d2ad;"/><path d="M529.204,138.013c0,-29.95 -18.923,-54.265 -42.232,-54.265c-23.308,0 -42.232,24.315 -42.232,54.265l0,203.162c2.258,12.331 86.853,8.061 84.464,0l0,-203.162Z" style="fill:#006e51;stroke:#f3d2ad;stroke-width:2.08px;"/><path d="M738.806,82.816c0,-12.657 -10.26,-22.917 -22.916,-22.917c-84.297,0 -376.631,0 -460.928,0c-12.656,0 -22.916,10.26 -22.916,22.917c-0,21.53 -0,50.462 -0,50.462l506.76,-0c0,-0 0,-28.932 0,-50.462Z" style="fill:#006e51;stroke:#f3d2ad;stroke-width:10.42px;"/><path d="M359.13,99.917c-0,-8.325 -6.76,-15.084 -15.085,-15.084c-8.326,-0 -15.085,6.759 -15.085,15.084l0,53.916c0,8.325 6.759,15.084 15.085,15.084c8.325,0 15.085,-6.759 15.085,-15.084l-0,-53.916Z" style="fill:#006e51;stroke:#f3d2ad;stroke-width:10.42px;"/><path d="M645.315,98.833c-0,-8.326 -6.759,-15.085 -15.085,-15.085c-8.325,0 -15.085,6.759 -15.085,15.085l0,53.915c0,8.325 6.76,15.085 15.085,15.085c8.326,-0 15.085,-6.76 15.085,-15.085l-0,-53.915Z" style="fill:#006e51;stroke:#f3d2ad;stroke-width:10.42px;"/><path d="M311.049,527.468c0.683,-6.151 -3.757,-11.699 -9.908,-12.382c-6.151,-0.682 -11.699,3.758 -12.381,9.909l-77.064,694.554c-0.683,6.151 3.757,11.699 9.908,12.382c6.151,0.682 11.699,-3.758 12.381,-9.909l77.064,-694.554Z" style="fill:#006e51;stroke:#f3d2ad;stroke-width:2.08px;"/><path d="M661.058,527.468c-0.682,-6.151 3.758,-11.699 9.909,-12.382c6.151,-0.682 11.699,3.758 12.381,9.909l77.064,694.554c0.682,6.151 -3.757,11.699 -9.908,12.382c-6.151,0.682 -11.699,-3.758 -12.382,-9.909l-77.064,-694.554Z" style="fill:#006e51;stroke:#f3d2ad;stroke-width:2.08px;"/></g></svg>