<svg xmlns="http://www.w3.org/2000/svg" version="1.1" xmlns:xlink="http://www.w3.org/1999/xlink" xmlns:svgjs="http://svgjs.dev/svgjs" viewBox="0 0 640 800" id="qqquad"><g fill="#8bd3dd" shape-rendering="crispEdges"><rect width="159" height="199" x="480.5" y="0.5"></rect><rect width="79" height="99" x="400.5" y="0.5"></rect><rect width="79" height="99" x="320.5" y="0.5"></rect><rect width="79" height="99" x="320.5" y="100.5"></rect><rect width="79" height="99" x="400.5" y="100.5"></rect><rect width="79" height="99" x="400.5" y="200.5"></rect><rect width="79" height="99" x="320.5" y="200.5"></rect><rect width="79" height="99" x="320.5" y="300.5"></rect><rect width="79" height="99" x="400.5" y="300.5"></rect><rect width="79" height="99" x="560.5" y="200.5"></rect><rect width="79" height="99" x="480.5" y="200.5"></rect><rect width="39" height="49" x="520.5" y="300.5"></rect><rect width="39" height="49" x="480.5" y="300.5"></rect><rect width="39" height="49" x="480.5" y="350.5"></rect><rect width="39" height="49" x="520.5" y="350.5"></rect><rect width="79" height="99" x="560.5" y="300.5"></rect><rect width="79" height="99" x="240.5" y="0.5"></rect><rect width="79" height="99" x="160.5" y="0.5"></rect><rect width="79" height="99" x="160.5" y="100.5"></rect><rect width="79" height="99" x="240.5" y="100.5"></rect><rect width="159" height="199" x="0.5" y="0.5"></rect><rect width="159" height="199" x="0.5" y="200.5"></rect><rect width="79" height="99" x="240.5" y="200.5"></rect><rect width="79" height="99" x="160.5" y="200.5"></rect><rect width="79" height="99" x="160.5" y="300.5"></rect><rect width="79" height="99" x="240.5" y="300.5"></rect><rect width="79" height="99" x="240.5" y="400.5"></rect><rect width="79" height="99" x="160.5" y="400.5"></rect><rect width="79" height="99" x="160.5" y="500.5"></rect><rect width="79" height="99" x="240.5" y="500.5"></rect><rect width="159" height="199" x="0.5" y="400.5"></rect><rect width="159" height="199" x="0.5" y="600.5"></rect><rect width="159" height="199" x="160.5" y="600.5"></rect><rect width="79" height="99" x="560.5" y="400.5"></rect><rect width="79" height="99" x="480.5" y="400.5"></rect><rect width="79" height="99" x="480.5" y="500.5"></rect><rect width="79" height="99" x="560.5" y="500.5"></rect><rect width="79" height="99" x="400.5" y="400.5"></rect><rect width="79" height="99" x="320.5" y="400.5"></rect><rect width="79" height="99" x="320.5" y="500.5"></rect><rect width="79" height="99" x="400.5" y="500.5"></rect><rect width="39" height="49" x="440.5" y="600.5"></rect><rect width="39" height="49" x="400.5" y="600.5"></rect><rect width="39" height="49" x="400.5" y="650.5"></rect><rect width="39" height="49" x="440.5" y="650.5"></rect><rect width="79" height="99" x="320.5" y="600.5"></rect><rect width="79" height="99" x="320.5" y="700.5"></rect><rect width="79" height="99" x="400.5" y="700.5"></rect><rect width="159" height="199" x="480.5" y="600.5"></rect></g><g fill="#f582ae" shape-rendering="crispEdges"><polygon points="639.5,199.5 639.5,0.5 480.5,199.5"></polygon><polygon points="400.5,0.5 400.5,99.5 479.5,99.5"></polygon><polygon points="399.5,0.5 399.5,99.5 320.5,99.5"></polygon><polygon points="320.5,100.5 399.5,199.5 399.5,100.5"></polygon><polygon points="400.5,100.5 400.5,199.5 479.5,199.5"></polygon><polygon points="400.5,200.5 479.5,299.5 479.5,200.5"></polygon><polygon points="320.5,299.5 399.5,200.5 320.5,200.5"></polygon><polygon points="320.5,300.5 399.5,399.5 399.5,300.5"></polygon><polygon points="400.5,399.5 479.5,300.5 400.5,300.5"></polygon><polygon points="560.5,200.5 639.5,200.5 560.5,299.5"></polygon><polygon points="559.5,299.5 480.5,299.5 480.5,200.5"></polygon><polygon points="559.5,300.5 559.5,349.5 520.5,349.5"></polygon><polygon points="519.5,300.5 519.5,349.5 480.5,300.5"></polygon><polygon points="480.5,350.5 519.5,399.5 480.5,399.5"></polygon><polygon points="559.5,350.5 559.5,399.5 520.5,399.5"></polygon><polygon points="639.5,300.5 639.5,399.5 560.5,300.5"></polygon><polygon points="319.5,0.5 240.5,0.5 319.5,99.5"></polygon><polygon points="160.5,0.5 160.5,99.5 239.5,99.5"></polygon><polygon points="239.5,100.5 239.5,199.5 160.5,100.5"></polygon><polygon points="319.5,199.5 319.5,100.5 240.5,100.5"></polygon><polygon points="159.5,0.5 159.5,199.5 0.5,0.5"></polygon><polygon points="159.5,399.5 159.5,200.5 0.5,200.5"></polygon><polygon points="319.5,299.5 240.5,200.5 240.5,299.5"></polygon><polygon points="239.5,299.5 160.5,299.5 160.5,200.5"></polygon><polygon points="239.5,399.5 160.5,300.5 239.5,300.5"></polygon><polygon points="319.5,300.5 240.5,399.5 240.5,300.5"></polygon><polygon points="240.5,400.5 319.5,400.5 240.5,499.5"></polygon><polygon points="239.5,499.5 160.5,400.5 239.5,400.5"></polygon><polygon points="160.5,599.5 239.5,599.5 239.5,500.5"></polygon><polygon points="319.5,500.5 240.5,599.5 319.5,599.5"></polygon><polygon points="0.5,400.5 0.5,599.5 159.5,599.5"></polygon><polygon points="0.5,799.5 0.5,600.5 159.5,600.5"></polygon><polygon points="319.5,600.5 319.5,799.5 160.5,799.5"></polygon><polygon points="639.5,400.5 639.5,499.5 560.5,400.5"></polygon><polygon points="559.5,400.5 480.5,400.5 480.5,499.5"></polygon><polygon points="559.5,599.5 559.5,500.5 480.5,599.5"></polygon><polygon points="639.5,599.5 639.5,500.5 560.5,599.5"></polygon><polygon points="400.5,400.5 479.5,400.5 479.5,499.5"></polygon><polygon points="320.5,400.5 399.5,499.5 320.5,499.5"></polygon><polygon points="320.5,500.5 399.5,599.5 320.5,599.5"></polygon><polygon points="400.5,500.5 400.5,599.5 479.5,500.5"></polygon><polygon points="479.5,649.5 440.5,649.5 440.5,600.5"></polygon><polygon points="439.5,600.5 400.5,649.5 439.5,649.5"></polygon><polygon points="400.5,699.5 439.5,699.5 400.5,650.5"></polygon><polygon points="479.5,699.5 440.5,699.5 479.5,650.5"></polygon><polygon points="399.5,699.5 399.5,600.5 320.5,699.5"></polygon><polygon points="320.5,700.5 399.5,799.5 399.5,700.5"></polygon><polygon points="400.5,799.5 479.5,799.5 479.5,700.5"></polygon><polygon points="639.5,600.5 639.5,799.5 480.5,600.5"></polygon></g><g fill="hsl(71, 43%, 95%)" stroke-width="3" stroke="#8bd3dd"></g></svg>