<?xml version="1.0" encoding="UTF-8" standalone="no"?><!DOCTYPE svg PUBLIC "-//W3C//DTD SVG 1.1//EN" "http://www.w3.org/Graphics/SVG/1.1/DTD/svg11.dtd"><svg width="100%" height="100%" viewBox="0 0 2405 1486" version="1.1" xmlns="http://www.w3.org/2000/svg" xmlns:xlink="http://www.w3.org/1999/xlink" xml:space="preserve" xmlns:serif="http://www.serif.com/" style="fill-rule:evenodd;clip-rule:evenodd;stroke-linecap:round;stroke-linejoin:round;stroke-miterlimit:1.5;"><rect id="Artboard3" x="-1706.25" y="-1502.08" width="6113.98" height="4977.08" style="fill:none;"/><g><path d="M967.715,206.575c-1.224,-76.242 -72.978,-112.643 -155.164,-112.605c-211.931,99.558 -386.506,150.21 -564.851,147.973c-39.122,85.905 -55.052,157.14 -56.271,220.211l776.286,-255.579Z" style="fill:#437d51;"/><clipPath id="_clip1"><path d="M967.715,206.575c-1.224,-76.242 -72.978,-112.643 -155.164,-112.605c-211.931,99.558 -386.506,150.21 -564.851,147.973c-39.122,85.905 -55.052,157.14 -56.271,220.211l776.286,-255.579Z"/></clipPath><g clip-path="url(#_clip1)"><path d="M783.289,747.26c230.589,-40.359 387.689,-245.159 350.601,-457.056c-37.087,-211.897 -254.407,-351.165 -484.996,-310.806c84.856,77.476 165.731,208.84 192.537,361.994c26.806,153.153 -4.645,304.177 -58.142,405.868Z" style="fill:#147d51;fill-opacity:0.79;"/></g><path d="M967.715,206.575c-1.224,-76.242 -72.978,-112.643 -155.164,-112.605c-211.931,99.558 -386.506,150.21 -564.851,147.973c-39.122,85.905 -55.052,157.14 -56.271,220.211l776.286,-255.579Z" style="fill:none;stroke:#f3d2ad;stroke-width:48.27px;"/><path d="M974.265,204.515l-783.69,260.289l-14.565,58.724l385.244,168.932l475.79,-241.846c25.583,-158.988 1.531,-244.253 -62.779,-246.099Z" style="fill:#802c22;"/><clipPath id="_clip2"><path d="M974.265,204.515l-783.69,260.289l-14.565,58.724l385.244,168.932l475.79,-241.846c25.583,-158.988 1.531,-244.253 -62.779,-246.099Z"/></clipPath><g clip-path="url(#_clip2)"><path d="M783.289,747.26c230.589,-40.359 387.689,-245.159 350.601,-457.056c-37.087,-211.897 -254.407,-351.165 -484.996,-310.806c84.856,77.476 165.731,208.84 192.537,361.994c26.806,153.153 -4.645,304.177 -58.142,405.868Z" style="fill:#7a2c22;fill-opacity:0.79;"/></g><path d="M974.265,204.515l-783.69,260.289l-14.565,58.724l385.244,168.932l475.79,-241.846c25.583,-158.988 1.531,-244.253 -62.779,-246.099Z" style="fill:none;stroke:#f3d2ad;stroke-width:48.27px;"/><path d="M2264.57,969.648l-746.505,-151.28l-63.29,312.309l746.505,151.281l63.29,-312.31Z" style="fill:#f3d2c1;"/><path d="M1022.46,458.238l155.251,104.564c-177.205,143.429 -386.122,176.401 -617.734,130.32l462.483,-234.884Z" style="fill:#3e091b;stroke:#000;stroke-width:48.27px;"/><path d="M135.308,713.265l398.138,148.56l103.083,323.803l-522.944,-37.245c-7.397,-145.146 -1.284,-290.194 21.723,-435.118Z" style="fill:#742c22;"/><clipPath id="_clip3"><path d="M135.308,713.265l398.138,148.56l103.083,323.803l-522.944,-37.245c-7.397,-145.146 -1.284,-290.194 21.723,-435.118Z"/></clipPath><g clip-path="url(#_clip3)"><path d="M736.871,647.412c-224.209,0 -406.238,179.436 -406.238,400.45c-0,221.014 182.029,400.449 406.238,400.449c-67.263,-93.438 -121.871,-240.707 -121.871,-400.449c-0,-159.743 54.608,-307.011 121.871,-400.45Z" style="fill:#802c22;fill-opacity:0.79;"/></g><path d="M135.308,713.265l398.138,148.56l103.083,323.803l-522.944,-37.245c-7.397,-145.146 -1.284,-290.194 21.723,-435.118Z" style="fill:none;stroke:#f3d2ad;stroke-width:48.27px;"/><path d="M115.646,1148.97c-41.917,22.039 -42.87,158.71 -12.059,246.599l1531.05,31.759c236.944,-23.075 452.637,-66.561 644.295,-133.132c87.951,-62.636 96.044,-132.27 41.756,-207.372c-180.709,130 -417.106,141.722 -646.548,163.062c-518.484,-13.714 -1036.78,-56.122 -1558.49,-100.916Z" style="fill:#047d51;"/><clipPath id="_clip4"><path d="M115.646,1148.97c-41.917,22.039 -42.87,158.71 -12.059,246.599l1531.05,31.759c236.944,-23.075 452.637,-66.561 644.295,-133.132c87.951,-62.636 96.044,-132.27 41.756,-207.372c-180.709,130 -417.106,141.722 -646.548,163.062c-518.484,-13.714 -1036.78,-56.122 -1558.49,-100.916Z"/></clipPath><g clip-path="url(#_clip4)"><path d="M2081.12,1428.06c186.148,-13.988 326.789,-164.91 313.872,-336.816c-12.918,-171.905 -174.535,-300.114 -360.684,-286.125c61.306,68.48 115.253,179.619 124.589,303.867c9.337,124.248 -27.394,242.201 -77.777,319.074Z" style="fill:#437d51;fill-opacity:0.79;"/></g><path d="M115.646,1148.97c-41.917,22.039 -42.87,158.71 -12.059,246.599l1531.05,31.759c236.944,-23.075 452.637,-66.561 644.295,-133.132c87.951,-62.636 96.044,-132.27 41.756,-207.372c-180.709,130 -417.106,141.722 -646.548,163.062c-518.484,-13.714 -1036.78,-56.122 -1558.49,-100.916Z" style="fill:none;stroke:#f3d2ad;stroke-width:48.27px;"/><path d="M2245.11,973.105c33.654,22.103 57.895,56.707 71.919,104.88c-84.088,64.707 -273.609,133.856 -446.363,150.815c-163.743,18.247 -332.894,24.539 -511.981,8.873c28.275,21.241 204.41,-427.344 168.738,-447.901c-20.789,-11.98 57.892,-37.426 67.447,-24.859c76.172,33.499 135.463,65.221 135.917,105.605c-25.629,82.959 -47.494,137.606 -34.802,223.219c76.402,-31.832 390.898,-73.054 464.475,-49.227c45.173,-19.085 71.718,-38.712 84.65,-71.405Z" style="fill:#742c22;"/><clipPath id="_clip5"><path d="M2245.11,973.105c33.654,22.103 57.895,56.707 71.919,104.88c-84.088,64.707 -273.609,133.856 -446.363,150.815c-163.743,18.247 -332.894,24.539 -511.981,8.873c28.275,21.241 204.41,-427.344 168.738,-447.901c-20.789,-11.98 57.892,-37.426 67.447,-24.859c76.172,33.499 135.463,65.221 135.917,105.605c-25.629,82.959 -47.494,137.606 -34.802,223.219c76.402,-31.832 390.898,-73.054 464.475,-49.227c45.173,-19.085 71.718,-38.712 84.65,-71.405Z"/></clipPath><g clip-path="url(#_clip5)"><path d="M2081.12,1428.06c186.148,-13.988 326.789,-164.91 313.872,-336.816c-12.918,-171.905 -174.535,-300.114 -360.684,-286.125c61.306,68.48 115.253,179.619 124.589,303.867c9.337,124.248 -27.394,242.201 -77.777,319.074Z" style="fill:#742c22;fill-opacity:0.79;"/></g><path d="M2245.11,973.105c33.654,22.103 57.895,56.707 71.919,104.88c-84.088,64.707 -273.609,133.856 -446.363,150.815c-163.743,18.247 -332.894,24.539 -511.981,8.873c28.275,21.241 204.41,-427.344 168.738,-447.901c-20.789,-11.98 57.892,-37.426 67.447,-24.859c76.172,33.499 135.463,65.221 135.917,105.605c-25.629,82.959 -47.494,137.606 -34.802,223.219c76.402,-31.832 390.898,-73.054 464.475,-49.227c45.173,-19.085 71.718,-38.712 84.65,-71.405Z" style="fill:none;stroke:#f3d2ad;stroke-width:41.92px;"/><path d="M1730.78,870.518c166.917,34.165 338.309,68.361 514.323,102.587" style="fill:#69bac9;stroke:#f3d2ad;stroke-width:48.27px;"/><path d="M1026.2,457.897l152.239,108.569c-185.371,144.174 -393.285,175.326 -614.867,124.141l462.628,-232.71Z" style="fill:none;stroke:#f3d2ad;stroke-width:48.27px;"/><path d="M134.705,700.938l34.487,-165.371l397.361,163.14c107.096,37.285 308.957,10.117 457.761,-39.417c79.702,-26.531 170.658,-77.916 138.149,-105.21c-1.688,-1.417 356.311,216.535 356.311,216.535c-9.181,134.319 -73.002,280.791 -153.018,448.118l-717.096,-36.792l-106.066,-323.252l-407.889,-157.751Z" style="fill:#f3d2c1;"/><clipPath id="_clip6"><path d="M134.705,700.938l34.487,-165.371l397.361,163.14c107.096,37.285 308.957,10.117 457.761,-39.417c79.702,-26.531 170.658,-77.916 138.149,-105.21c-1.688,-1.417 356.311,216.535 356.311,216.535c-9.181,134.319 -73.002,280.791 -153.018,448.118l-717.096,-36.792l-106.066,-323.252l-407.889,-157.751Z"/></clipPath><g clip-path="url(#_clip6)"><path d="M978.956,1474.71c215.879,85.947 491.006,-95.1 614.006,-404.046c122.999,-308.946 47.593,-629.55 -168.287,-715.497c12.764,156.397 -16.615,383.192 -105.515,606.489c-88.901,223.297 -223.44,408.225 -340.204,513.054Z" style="fill:#f3d2ad;fill-opacity:0.79;"/></g><path d="M134.705,700.938l34.487,-165.371l397.361,163.14c107.096,37.285 308.957,10.117 457.761,-39.417c79.702,-26.531 170.658,-77.916 138.149,-105.21c-1.688,-1.417 356.311,216.535 356.311,216.535c-9.181,134.319 -73.002,280.791 -153.018,448.118l-717.096,-36.792l-106.066,-323.252l-407.889,-157.751Z" style="fill:none;stroke:#f3d2ad;stroke-width:48.27px;"/><ellipse cx="1036.13" cy="931.768" rx="216.668" ry="211.24" style="fill:#7a2c22;fill-opacity:0.24;"/><clipPath id="_clip7"><ellipse cx="1036.13" cy="931.768" rx="216.668" ry="211.24"/></clipPath><g clip-path="url(#_clip7)"><path d="M897.002,758.387c-106.867,115.414 -121.599,275.812 -32.878,357.961c88.721,82.15 247.513,55.143 354.38,-60.272c-69.569,-0.106 -154.715,-26.734 -218.84,-86.11c-64.125,-59.375 -97.214,-142.225 -102.662,-211.579Z" style="fill:#7a2c22;fill-opacity:0.24;"/></g><path d="M1248.06,585.436c8.965,-14.443 27.969,-18.891 42.412,-9.927c14.443,8.965 18.891,27.969 9.927,42.412l-73.819,118.933c-8.964,14.443 -27.968,18.891 -42.412,9.926c-14.443,-8.964 -18.891,-27.968 -9.926,-42.411l73.818,-118.933Z" style="fill:#147d51;"/><path d="M1337.28,625.67c8.965,-14.444 27.969,-18.892 42.412,-9.927c14.443,8.964 18.891,27.969 9.926,42.412l-73.818,118.932c-8.965,14.443 -27.969,18.891 -42.412,9.927c-14.443,-8.965 -18.891,-27.969 -9.927,-42.412l73.819,-118.932Z" style="fill:#147d51;"/><path d="M1069.62,306.775c11.763,1.92 19.753,13.029 17.833,24.792c-1.921,11.763 -13.03,19.753 -24.793,17.832l-96.859,-15.815c-11.763,-1.921 -19.754,-13.03 -17.833,-24.793c1.921,-11.762 13.03,-19.753 24.793,-17.832l96.859,15.816Z" style="fill:#147d51;"/><path d="M1439.23,670.396c8.965,-14.443 27.969,-18.891 42.412,-9.926c14.443,8.964 18.891,27.968 9.927,42.412l-73.819,118.932c-8.965,14.443 -27.969,18.891 -42.412,9.927c-14.443,-8.965 -18.891,-27.969 -9.926,-42.412l73.818,-118.933Z" style="fill:#147d51;"/><path d="M642.748,378.856c2.152,-2.706 135.887,22.06 31.289,71.796c-86.573,41.165 -34.266,-75.329 -31.289,-71.796Z" style="fill:#147d51;"/><path d="M750.787,450.245c-2.471,-1.841 -58.315,10.448 -42.772,55.862c15.972,46.666 70.41,17.613 74.145,9.727c2.9,8.409 79.75,-83.894 24.186,-123.119c-50.906,-35.935 -55.559,57.53 -55.559,57.53Z" style="fill:#147d51;"/><path d="M623.114,493.586c1.053,-2.897 54.462,-23.321 66.435,23.162c12.304,47.764 -49.143,53.411 -56.597,48.875c2.198,8.619 -112.734,-26.258 -87.871,-89.565c22.779,-57.999 78.033,17.528 78.033,17.528Z" style="fill:#147d51;"/></g></svg>