<?xml version="1.0" encoding="UTF-8" standalone="no"?><!DOCTYPE svg PUBLIC "-//W3C//DTD SVG 1.1//EN" "http://www.w3.org/Graphics/SVG/1.1/DTD/svg11.dtd"><svg width="100%" height="100%" viewBox="0 0 1342 1378" version="1.1" xmlns="http://www.w3.org/2000/svg" xmlns:xlink="http://www.w3.org/1999/xlink" xml:space="preserve" xmlns:serif="http://www.serif.com/" style="fill-rule:evenodd;clip-rule:evenodd;stroke-linecap:round;stroke-linejoin:round;stroke-miterlimit:1.5;"><rect id="Artboard2" x="-1877.08" y="-1227.08" width="4817.63" height="3968.64" style="fill:none;"/><g><path d="M325.736,322.357c-0,-0 -136.124,31.442 -126.45,88.214c9.674,56.773 -210.221,536.767 -122.096,591.371c88.125,54.605 165.47,46.227 165.47,46.227c51.017,7.504 298.705,-704.102 83.076,-725.812Z" style="fill:#894b9d;"/><clipPath id="_clip1"><path d="M325.736,322.357c-0,-0 -136.124,31.442 -126.45,88.214c9.674,56.773 -210.221,536.767 -122.096,591.371c88.125,54.605 165.47,46.227 165.47,46.227c51.017,7.504 298.705,-704.102 83.076,-725.812Z"/></clipPath><g clip-path="url(#_clip1)"><path d="M347.718,783.322l-259.773,-96.443l-36.62,98.638l259.774,96.442l36.619,-98.637Z" style="fill:#f0ad01;"/><path d="M347.627,591.156l-198.307,-64.391l-13.117,40.398l198.307,64.391l13.117,-40.398Z" style="fill:#f0ad01;"/></g><path d="M325.736,322.357c-0,-0 -136.124,31.442 -126.45,88.214c9.674,56.773 -210.221,536.767 -122.096,591.371c88.125,54.605 165.47,46.227 165.47,46.227c51.017,7.504 298.705,-704.102 83.076,-725.812Z" style="fill:none;stroke:#000;stroke-width:29.22px;"/><path d="M1028.17,322.159c-0,-0 136.123,31.443 126.449,88.215c-9.673,56.772 210.221,536.766 122.096,591.371c-88.125,54.604 -165.469,46.226 -165.469,46.226c-51.017,7.504 -298.705,-704.101 -83.076,-725.812Z" style="fill:#894b9d;"/><clipPath id="_clip2"><path d="M1028.17,322.159c-0,-0 136.123,31.443 126.449,88.215c-9.673,56.772 210.221,536.766 122.096,591.371c-88.125,54.604 -165.469,46.226 -165.469,46.226c-51.017,7.504 -298.705,-704.101 -83.076,-725.812Z"/></clipPath><g clip-path="url(#_clip2)"><path d="M1259.47,743.353l-261.678,91.15l34.61,99.36l261.678,-91.15l-34.61,-99.36Z" style="fill:#f0ad01;"/><path d="M1212.34,533.141l-200.103,58.575l11.932,40.763l200.103,-58.575l-11.932,-40.763Z" style="fill:#f0ad01;"/></g><path d="M1028.17,322.159c-0,-0 136.123,31.443 126.449,88.215c-9.673,56.772 210.221,536.766 122.096,591.371c-88.125,54.604 -165.469,46.226 -165.469,46.226c-51.017,7.504 -298.705,-704.101 -83.076,-725.812Z" style="fill:none;stroke:#000;stroke-width:29.22px;"/><rect x="507.779" y="148.364" width="346.871" height="301.835" style="fill:#3d324c;"/><path d="M436.815,262.524c-35.326,5.043 -70.791,23.102 -106.387,53.391l-9.63,331.35l336.67,1.865l-0.728,-209.306c-0,0 -225.02,-88.986 -219.925,-177.3Z" style="fill:#955ba5;stroke:#000;stroke-width:29.22px;"/><path d="M917.09,262.326c35.326,5.043 70.791,23.102 106.388,53.391l12.36,337.738l-339.401,-4.523l0.728,-209.306c0,0 225.02,-88.985 219.925,-177.3Z" style="fill:#955ba5;stroke:#000;stroke-width:29.22px;"/><rect x="316.367" y="651.443" width="723.641" height="40.807" style="fill:#f0c419;stroke:#000;stroke-width:29.22px;"/><path d="M698.567,707.678l-2.957,537.886c-0,-0 338,26.92 349.394,-44.922c11.394,-71.842 6.012,-221.141 6.012,-221.141l-15.698,-275.776l-336.751,3.953Z" style="fill:#955ba5;stroke:#000;stroke-width:29.22px;"/><path d="M655.338,707.876l2.958,537.886c-0,-0 -338.001,26.919 -349.395,-44.923c-11.394,-71.841 -6.011,-221.14 -6.011,-221.14l15.697,-275.776l336.751,3.953Z" style="fill:#955ba5;stroke:#000;stroke-width:29.22px;"/><path d="M70.33,1010.37l-16.43,87.089l152.103,43.981c0,-0 33.728,-82.358 34.13,-81.46c0.402,0.899 -169.803,-49.61 -169.803,-49.61Z" style="fill:#5d4c72;stroke:#000;stroke-width:29.22px;"/><path d="M1283.58,1010.17l16.431,87.089l-152.104,43.981c0,-0 -33.727,-82.358 -34.13,-81.46c-0.402,0.899 169.803,-49.61 169.803,-49.61Z" style="fill:#5d4c72;stroke:#000;stroke-width:29.22px;"/><path d="M656.05,1331.61l0.677,-87.435l-300.117,-0.241c-6.89,32.788 -7.838,63.453 11.22,86.977l288.22,0.699Z" style="fill:#5d4c72;stroke:#000;stroke-width:29.22px;"/><path d="M697.856,1331.41l-0.677,-87.435l300.116,-0.241c6.891,32.788 7.839,63.454 -11.22,86.977l-288.219,0.699Z" style="fill:#5d4c72;stroke:#000;stroke-width:29.22px;"/><rect x="394.64" y="649.455" width="260.942" height="49.682" style="fill:none;stroke:#000;stroke-width:29.22px;"/><rect x="698.323" y="649.258" width="260.942" height="49.682" style="fill:none;stroke:#000;stroke-width:29.22px;"/><path d="M843.224,207.531c-4.067,-31.085 -329.503,-40.433 -322.26,1.813c1.055,6.153 -33.242,-97.567 -33.242,-97.567c-3.64,-41.547 383.384,-46.021 386.369,-6.988c0.051,0.661 -30.867,102.742 -30.867,102.742Z" style="fill:#894b9d;stroke:#000;stroke-width:29.22px;"/><path d="M484.178,109.153l-43.414,150.004c35.346,97.36 120.438,153.232 237.163,182.723c-0,0 -21.877,-149.56 -69.911,-143.315c-48.598,6.317 -140.982,-202.981 -123.838,-189.412Z" style="fill:#b49aca;stroke:#000;stroke-width:29.22px;"/><path d="M876.722,110.033l43.415,150.004c-35.346,97.36 -120.438,153.232 -237.163,182.723c-0,-0 21.876,-149.56 69.911,-143.316c48.597,6.318 140.982,-202.98 123.837,-189.411Z" style="fill:#b49aca;stroke:#000;stroke-width:29.22px;"/><rect x="657.977" y="448.344" width="38.476" height="883.887" style="fill:#bdc3c7;stroke:#000;stroke-width:29.22px;"/><path d="M677.483,431.735c-0.021,0.008 -32.39,44.475 -32.39,44.475c-0,17.876 14.513,32.39 32.39,32.39c17.876,-0 32.389,-14.514 32.389,-32.39c0,-0 -32.398,-44.447 -32.389,-44.475Z" style="fill:#ecf0f1;"/></g></svg>