<?xml version="1.0" encoding="UTF-8" standalone="no"?><!DOCTYPE svg PUBLIC "-//W3C//DTD SVG 1.1//EN" "http://www.w3.org/Graphics/SVG/1.1/DTD/svg11.dtd"><svg width="100%" height="100%" viewBox="0 0 940 1355" version="1.1" xmlns="http://www.w3.org/2000/svg" xmlns:xlink="http://www.w3.org/1999/xlink" xml:space="preserve" xmlns:serif="http://www.serif.com/" style="fill-rule:evenodd;clip-rule:evenodd;stroke-linecap:round;stroke-linejoin:round;stroke-miterlimit:1.5;"><rect id="Artboard4" x="-2052.08" y="-1529.17" width="4969.83" height="4374.33" style="fill:none;"/><g><path d="M222.441,132.386c-135.129,376.823 -155.347,771.485 -186.945,1154.61c-0.528,6.37 1.622,12.672 5.933,17.39c4.312,4.719 10.395,7.427 16.787,7.473c68.345,0.498 258.702,1.881 322.493,2.344c11.942,0.087 21.948,-9.011 22.995,-20.907c9.799,-111.375 55.579,-631.708 67.493,-767.128c0.133,-1.503 1.391,-2.658 2.9,-2.661c1.51,-0.003 2.772,1.147 2.91,2.65c12.441,135.206 60.191,654.172 70.358,764.679c1.084,11.773 10.946,20.79 22.769,20.817c63.384,0.143 253.506,0.572 320.895,0.724c6.266,0.014 12.265,-2.538 16.6,-7.063c4.335,-4.525 6.628,-10.627 6.345,-16.887c-18.08,-395.341 -64.145,-775.155 -186.097,-1156.73l-505.436,0.692Z" style="fill:#ff8080;"/><path d="M474.154,551.989l68.025,739.322c1.329,14.449 13.433,25.515 27.943,25.548c63.385,0.143 253.506,0.572 320.895,0.725c7.691,0.017 15.053,-3.116 20.373,-8.669c5.32,-5.553 8.134,-13.043 7.787,-20.725c0,-0.001 0,-0.002 0,-0.003c-18.101,-395.803 -64.245,-776.057 -186.339,-1158.08c-0.69,-2.161 -2.7,-3.626 -4.968,-3.623c0,0 -505.437,0.691 -505.437,0.691c-2.196,0.003 -4.154,1.383 -4.895,3.451c-135.286,377.261 -155.598,772.37 -187.233,1155.94c-0.648,7.812 1.99,15.543 7.28,21.332c5.289,5.788 12.752,9.111 20.593,9.168c68.345,0.497 258.702,1.88 322.493,2.344c14.656,0.106 26.937,-11.06 28.221,-25.66l65.262,-741.761Zm-248.043,-414.4l497.962,-0.681c120.944,379.908 166.696,758.127 184.698,1151.75c0.219,4.837 -1.553,9.553 -4.903,13.049c-3.35,3.497 -7.985,5.469 -12.827,5.458l-320.895,-0.725c-9.136,-0.02 -16.757,-6.988 -17.594,-16.086c-10.168,-110.507 -57.918,-629.473 -70.358,-764.678c-0.386,-4.188 -3.902,-7.389 -8.107,-7.381c-4.205,0.008 -7.709,3.224 -8.078,7.413c-11.914,135.419 -57.694,655.752 -67.493,767.127c-0.809,9.193 -8.542,16.223 -17.769,16.156c-63.791,-0.463 -254.148,-1.847 -322.493,-2.344c-4.942,-0.036 -9.646,-2.13 -12.98,-5.778c-3.334,-3.649 -4.996,-8.521 -4.587,-13.447c-0,-0.001 -0,-0.001 -0,-0.002c31.465,-381.51 51.562,-774.488 185.424,-1149.83l0,0Z"/><path d="M517.711,138.228c-0,-29.949 -18.924,-54.265 -42.232,-54.265c-23.308,0 -42.232,24.316 -42.232,54.265l-0,203.163c2.258,12.33 86.853,8.06 84.464,-0l-0,-203.163Z" style="fill:#fc7070;"/><path d="M727.313,83.031c-0,-12.657 -10.26,-22.917 -22.917,-22.917c-84.296,0 -376.63,0 -460.927,0c-12.657,0 -22.917,10.26 -22.917,22.917c0,21.53 0,50.462 0,50.462l506.761,0c-0,0 -0,-28.932 -0,-50.462Z" style="fill:#f96767;stroke:#000;stroke-width:10.42px;"/><path d="M347.636,100.133c0,-8.326 -6.759,-15.085 -15.084,-15.085c-8.326,0 -15.085,6.759 -15.085,15.085l-0,53.915c-0,8.325 6.759,15.084 15.085,15.084c8.325,0 15.084,-6.759 15.084,-15.084l0,-53.915Z" style="fill:#f45b5b;stroke:#000;stroke-width:10.42px;"/><path d="M633.821,99.048c0,-8.325 -6.759,-15.085 -15.084,-15.085c-8.326,0 -15.085,6.76 -15.085,15.085l0,53.915c0,8.326 6.759,15.085 15.085,15.085c8.325,-0 15.084,-6.759 15.084,-15.085l0,-53.915Z" style="fill:#f45b5b;stroke:#000;stroke-width:10.42px;"/><path d="M299.556,527.683c0.683,-6.151 -3.757,-11.699 -9.908,-12.381c-6.151,-0.683 -11.699,3.757 -12.382,9.908l-77.064,694.554c-0.682,6.151 3.758,11.699 9.909,12.382c6.151,0.682 11.699,-3.757 12.381,-9.908l77.064,-694.555Z" style="fill:#f45b5b;"/><path d="M649.565,527.683c-0.682,-6.151 3.757,-11.699 9.908,-12.381c6.151,-0.683 11.699,3.757 12.382,9.908l77.064,694.554c0.682,6.151 -3.758,11.699 -9.909,12.382c-6.151,0.682 -11.699,-3.757 -12.381,-9.908l-77.064,-694.555Z" style="fill:#f45b5b;"/></g></svg>