<svg xmlns="http://www.w3.org/2000/svg" version="1.1" xmlns:xlink="http://www.w3.org/1999/xlink" xmlns:svgjs="http://svgjs.dev/svgjs" viewBox="0 0 800 800"><defs><linearGradient x1="50%" y1="0%" x2="50%" y2="100%" id="ffflurry-grad" gradientTransform="rotate(270)"><stop stop-color="hsl(238, 82%, 13%)" stop-opacity="1" offset="0%"></stop><stop stop-color="#f582ae" stop-opacity="1" offset="45%"></stop><stop stop-color="#8bd3dd" stop-opacity="1" offset="100%"></stop></linearGradient></defs><rect width="100%" height="100%" fill="hsl(238, 82%, 13%)"></rect><g fill="url(#ffflurry-grad)"><rect width="150" height="1" x="333" y="347.5" rx="0.5" transform="rotate(23, 408, 348)" opacity="0.57"></rect><rect width="110" height="1" x="703" y="52.5" rx="0.5" transform="rotate(23, 758, 53)" opacity="0.78"></rect><rect width="126" height="1" x="24" y="758.5" rx="0.5" transform="rotate(23, 87, 759)" opacity="0.78"></rect><rect width="210" height="1" x="422" y="351.5" rx="0.5" transform="rotate(23, 527, 352)" opacity="0.17"></rect><rect width="139" height="1" x="591.5" y="662.5" rx="0.5" transform="rotate(23, 661, 663)" opacity="0.72"></rect><rect width="161" height="1" x="223.5" y="423.5" rx="0.5" transform="rotate(23, 304, 424)" opacity="0.18"></rect><rect width="192" height="1" x="133" y="49.5" rx="0.5" transform="rotate(23, 229, 50)" opacity="0.33"></rect><rect width="82" height="1" x="345" y="579.5" rx="0.5" transform="rotate(23, 386, 580)" opacity="0.84"></rect><rect width="115" height="1" x="683.5" y="476.5" rx="0.5" transform="rotate(23, 741, 477)" opacity="0.29"></rect><rect width="79" height="1" x="580.5" y="46.5" rx="0.5" transform="rotate(23, 620, 47)" opacity="0.18"></rect><rect width="111" height="1" x="675.5" y="745.5" rx="0.5" transform="rotate(23, 731, 746)" opacity="0.15"></rect><rect width="87" height="1" x="26.5" y="41.5" rx="0.5" transform="rotate(23, 70, 42)" opacity="0.07"></rect><rect width="119" height="1" x="428.5" y="49.5" rx="0.5" transform="rotate(23, 488, 50)" opacity="0.30"></rect><rect width="55" height="1" x="81.5" y="205.5" rx="0.5" transform="rotate(23, 109, 206)" opacity="0.26"></rect><rect width="175" height="1" x="471.5" y="170.5" rx="0.5" transform="rotate(23, 559, 171)" opacity="0.65"></rect><rect width="180" height="1" x="659" y="181.5" rx="0.5" transform="rotate(23, 749, 182)" opacity="0.46"></rect><rect width="149" height="1" x="138.5" y="501.5" rx="0.5" transform="rotate(23, 213, 502)" opacity="0.62"></rect><rect width="53" height="1" x="406.5" y="158.5" rx="0.5" transform="rotate(23, 433, 159)" opacity="0.88"></rect><rect width="122" height="1" x="184" y="175.5" rx="0.5" transform="rotate(23, 245, 176)" opacity="0.41"></rect><rect width="150" height="1" x="575" y="258.5" rx="0.5" transform="rotate(23, 650, 259)" opacity="0.57"></rect><rect width="111" height="1" x="646.5" y="98.5" rx="0.5" transform="rotate(23, 702, 99)" opacity="0.53"></rect><rect width="74" height="1" x="284" y="265.5" rx="0.5" transform="rotate(23, 321, 266)" opacity="0.10"></rect><rect width="119" height="1" x="64.5" y="287.5" rx="0.5" transform="rotate(23, 124, 288)" opacity="0.98"></rect><rect width="132" height="1" x="540" y="444.5" rx="0.5" transform="rotate(23, 606, 445)" opacity="0.66"></rect><rect width="115" height="1" x="487.5" y="604.5" rx="0.5" transform="rotate(23, 545, 605)" opacity="0.62"></rect><rect width="136" height="1" x="397" y="534.5" rx="0.5" transform="rotate(23, 465, 535)" opacity="0.42"></rect><rect width="67" height="1" x="136.5" y="613.5" rx="0.5" transform="rotate(23, 170, 614)" opacity="0.13"></rect><rect width="151" height="1" x="673.5" y="406.5" rx="0.5" transform="rotate(23, 749, 407)" opacity="0.59"></rect><rect width="260" height="1" x="350" y="674.5" rx="0.5" transform="rotate(23, 480, 675)" opacity="0.43"></rect><rect width="115" height="1" x="236.5" y="609.5" rx="0.5" transform="rotate(23, 294, 610)" opacity="0.61"></rect><rect width="79" height="1" x="13.5" y="660.5" rx="0.5" transform="rotate(23, 53, 661)" opacity="0.40"></rect><rect width="69" height="1" x="587.5" y="571.5" rx="0.5" transform="rotate(23, 622, 572)" opacity="0.89"></rect><rect width="64" height="1" x="511" y="496.5" rx="0.5" transform="rotate(23, 543, 497)" opacity="0.38"></rect><rect width="106" height="1" x="137" y="712.5" rx="0.5" transform="rotate(23, 190, 713)" opacity="0.57"></rect><rect width="133" height="1" x="144.5" y="284.5" rx="0.5" transform="rotate(23, 211, 285)" opacity="0.94"></rect><rect width="180" height="1" x="-21" y="444.5" rx="0.5" transform="rotate(23, 69, 445)" opacity="0.92"></rect><rect width="94" height="1" x="111" y="383.5" rx="0.5" transform="rotate(23, 158, 384)" opacity="0.24"></rect><rect width="83" height="1" x="720.5" y="267.5" rx="0.5" transform="rotate(23, 762, 268)" opacity="0.84"></rect><rect width="61" height="1" x="402.5" y="450.5" rx="0.5" transform="rotate(23, 433, 451)" opacity="0.88"></rect><rect width="122" height="1" x="-22" y="312.5" rx="0.5" transform="rotate(23, 39, 313)" opacity="0.61"></rect><rect width="117" height="1" x="339.5" y="740.5" rx="0.5" transform="rotate(23, 398, 741)" opacity="0.39"></rect><rect width="93" height="1" x="107.5" y="111.5" rx="0.5" transform="rotate(23, 154, 112)" opacity="0.57"></rect><rect width="147" height="1" x="658.5" y="340.5" rx="0.5" transform="rotate(23, 732, 341)" opacity="0.62"></rect><rect width="154" height="1" x="495" y="746.5" rx="0.5" transform="rotate(23, 572, 747)" opacity="0.34"></rect><rect width="167" height="1" x="263.5" y="78.5" rx="0.5" transform="rotate(23, 347, 79)" opacity="0.93"></rect><rect width="134" height="1" x="692" y="610.5" rx="0.5" transform="rotate(23, 759, 611)" opacity="0.81"></rect><rect width="238" height="1" x="-52" y="544.5" rx="0.5" transform="rotate(23, 67, 545)" opacity="0.40"></rect><rect width="247" height="1" x="355.5" y="254.5" rx="0.5" transform="rotate(23, 479, 255)" opacity="0.47"></rect><rect width="172" height="1" x="-43" y="148.5" rx="0.5" transform="rotate(23, 43, 149)" opacity="0.95"></rect><rect width="86" height="1" x="646" y="529.5" rx="0.5" transform="rotate(23, 689, 530)" opacity="0.98"></rect><rect width="113" height="1" x="220.5" y="742.5" rx="0.5" transform="rotate(23, 277, 743)" opacity="0.32"></rect><rect width="139" height="1" x="575.5" y="156.5" rx="0.5" transform="rotate(23, 645, 157)" opacity="0.70"></rect><rect width="163" height="1" x="545.5" y="352.5" rx="0.5" transform="rotate(23, 627, 353)" opacity="0.56"></rect></g></svg>