<svg xmlns="http://www.w3.org/2000/svg" version="1.1" xmlns:xlink="http://www.w3.org/1999/xlink" xmlns:svgjs="http://svgjs.dev/svgjs" viewBox="0 0 640 800"><defs><filter id="uuunion-blur" x="-100%" y="-100%" width="400%" height="400%" color-interpolation-filters="sRGB">
        <feGaussianBlur in="SourceGraphic" stdDeviation="22 7.5" result="blur"></feGaussianBlur>
        <feDropShadow stdDeviation="66.46153846153847" in="blur" dx="54" dy="54" flood-color="#fef6e4" flood-opacity="0.47" x="0%" y="0%" width="100%" height="100%"></feDropShadow>
      </filter><filter id="uuunion-blur2" x="-100%" y="-100%" width="400%" height="400%" color-interpolation-filters="sRGB">
        <feGaussianBlur in="SourceGraphic" stdDeviation="22 7.5" result="blur"></feGaussianBlur>
        <feDropShadow stdDeviation="66.46153846153847" in="blur" dx="-54" dy="-54" flood-color="#fef6e4" flood-opacity="0.47" x="0%" y="0%" width="100%" height="100%"></feDropShadow>
      </filter><linearGradient gradientTransform="rotate(0, 0.5, 0.5)" x1="50%" y1="0%" x2="50%" y2="100%" id="uuunion-grad"><stop stop-color="#f3d2c1" offset="10%"></stop><stop stop-color="#fef6e4" offset="90%"></stop></linearGradient><linearGradient gradientTransform="rotate(135, 0.5, 0.5)" x1="50%" y1="0%" x2="50%" y2="100%" id="uuunion-grad2"><stop stop-color="#f3d2c1" offset="25%"></stop><stop stop-color="#fef6e4" offset="100%"></stop></linearGradient><linearGradient gradientTransform="rotate(333, 0.5, 0.5)" x1="50%" y1="0%" x2="50%" y2="100%" id="uuunion-grad3"><stop stop-color="#f3d2c1" offset="0%"></stop><stop stop-color="#fef6e4" offset="75%"></stop></linearGradient></defs><path d="M-65.86 -78.58Q-54.59 -77.36 -43.32 -76.3 -32.05 -75.45 -20.78 -74.88 -9.52 -74.61 1.74 -74.67 13.01 -75.04 24.28 -75.71 35.55 -76.63 46.82 -77.75 58.09 -79.01 69.35 -80.33 80.62 -81.63 91.89 -82.83 103.16 -83.86 114.43 -84.66 125.7 -85.18 136.96 -85.39 148.23 -85.28 159.5 -84.86 170.77 -84.14 182.04 -83.18 193.31 -82.03 204.57 -80.75 215.84 -79.43 227.11 -78.15 238.38 -76.97 249.65 -75.98 260.92 -75.22 272.19 -74.75 283.45 -74.6 294.72 -74.76 305.99 -75.24 317.26 -76 328.53 -77 339.8 -78.17 351.06 -79.46 362.33 -80.78 373.6 -82.05 384.87 -83.2 396.14 -84.16 407.41 -84.87 418.67 -85.29 429.94 -85.39 441.21 -85.17 452.48 -84.64 463.75 -83.84 475.02 -82.8 486.29 -81.6 497.55 -80.3 508.82 -78.99 520.09 -77.73 531.36 -76.61 542.63 -75.69 553.9 -75.03 565.16 -74.66 576.43 -74.62 587.7 -74.89 598.97 -75.47 610.24 -76.32 621.51 -77.38 632.77 -78.61 646.69 -73.17 651.37 -51.62 661.08 -36.82 677.06 -22.01 696.98 -7.21 717.92 7.58 736.83 22.39 750.94 37.19 758.19 51.99 757.52 66.8 749.03 81.6 733.97 96.4 714.52 111.2 693.53 126.01 674.08 140.81 658.99 155.61 650.48 170.42 649.79 185.22 657.02 200.02 671.11 214.83 690.01 229.63 710.95 244.43 730.88 259.24 746.87 274.04 756.6 288.84 758.65 303.65 752.71 318.45 739.65 333.25 721.38 348.06 700.57 362.86 680.26 377.66 663.42 392.47 652.51 407.27 649.12 422.07 653.75 436.88 665.72 451.68 683.28 466.48 703.87 481.29 724.48 496.09 742.09 510.89 754.14 525.69 758.86 540.5 755.57 555.3 744.74 570.1 727.95 584.91 707.67 599.71 686.85 614.51 668.53 629.32 655.4 644.12 649.37 658.92 651.31 673.73 660.96 688.53 676.9 703.33 696.79 718.14 717.74 732.94 736.68 747.74 750.84 762.55 758.16 777.35 757.56 792.15 749.14 806.96 734.12 821.76 714.7 836.56 693.72 851.37 674.23 866.17 662.68 880.89 651.13 895.55 639.57 909.29 628.02 921.28 616.47 930.8 604.92 937.29 593.36 940.37 581.81 939.84 570.26 935.74 558.71 928.31 547.15 918 535.6 905.42 524.05 891.33 512.49 876.55 500.94 861.99 489.39 848.5 477.84 836.88 466.28 827.84 454.73 821.92 443.18 819.46 431.62 820.61 420.07 825.3 408.52 833.26 396.97 844.01 385.41 856.9 373.86 871.18 362.31 885.98 350.76 900.42 339.2 913.64 327.65 924.86 316.1 933.4 304.54 938.75 292.99 940.59 281.44 938.82 269.89 933.54 258.33 925.06 246.78 913.9 235.23 900.71 223.68 886.28 212.12 871.48 200.57 857.19 189.02 844.26 177.46 833.46 165.91 825.43 154.36 820.67 142.81 819.44 131.25 821.83 119.7 827.69 108.15 836.67 96.6 848.23 85.04 861.7 73.49 876.25 61.94 891.03 50.38 905.14 38.83 917.76 27.28 928.13 15.73 935.62 4.17 939.79 -7.37 940.39 -18.92 937.39 -30.48 930.97 -42.03 921.5 -53.58 909.56 -65.13 895.85 -64.39 880.62 -63.59 865.4 -62.84 850.17 -62.27 834.95 -61.95 819.72 -61.92 804.49 -62.2 789.27 -62.74 774.04 -63.47 758.82 -64.27 743.59 -65.03 728.37 -65.64 713.14 -66.01 697.91 -66.08 682.69 -65.85 667.46 -65.35 652.24 -64.65 637.01 -63.85 621.79 -63.08 606.56 -62.44 591.34 -62.02 576.11 -61.9 560.88 -62.08 545.66 -62.54 530.43 -63.21 515.21 -64 499.98 -64.79 484.76 -65.46 469.53 -65.92 454.3 -66.09 439.08 -65.96 423.85 -65.55 408.63 -64.9 393.4 -64.13 378.18 -63.33 362.95 -62.63 347.73 -62.13 332.5 -61.9 317.27 -61.98 302.05 -62.35 286.82 -62.97 271.6 -63.73 256.37 -64.53 241.15 -65.25 225.92 -65.79 210.69 -66.07 195.47 -66.04 180.24 -65.72 165.02 -65.14 149.79 -64.4 134.57 -63.59 119.34 -62.85 104.12 -62.27 88.89 -61.95 73.66 -61.92 58.44 -62.2 43.21 -62.74 27.99 -63.46 12.76 -64.26 -2.45 -65.03 -17.68 -65.64 -32.91 -66.01 -48.13 -66.09 -63.36 -65.86 -78.58" fill="url(#uuunion-grad)"></path><path d="M-65.86 -78.58Q-66.09 -63.36 -66.01 -48.13 -65.64 -32.91 -65.03 -17.68 -64.26 -2.45 -63.46 12.76 -62.74 27.99 -62.2 43.21 -61.92 58.44 -61.95 73.66 -62.27 88.89 -62.85 104.12 -63.59 119.34 -64.4 134.57 -65.14 149.79 -65.72 165.02 -66.04 180.24 -66.07 195.47 -65.79 210.69 -65.25 225.92 -64.53 241.15 -63.73 256.37 -62.97 271.6 -62.35 286.82 -61.98 302.05 -61.9 317.27 -62.13 332.5 -62.63 347.73 -63.33 362.95 -64.13 378.18 -64.9 393.4 -65.55 408.63 -50.36 418.39 -35.17 426.2 -7.41 432.54 -2.91 432.97 7.4 425.42 18.01 416.6 28.9 406.64 40.08 395.72 51.52 384.06 63.19 371.89 75.04 359.47 87.01 347.07 99.05 334.93 111.07 323.29 123.02 312.36 134.8 302.33 146.34 293.31 157.58 285.41 168.43 278.67 178.86 273.07 188.8 268.56 198.23 265.03 215.24 260.6 230.7 257.61 244.02 254.92 256.47 251.2 268.48 244.15 280.9 234.5 287.64 228.06 294.85 220.73 302.65 212.58 311.12 203.72 320.33 194.29 330.34 184.42 341.18 174.3 352.87 164.09 365.38 153.95 378.68 144.06 392.72 134.54 407.41 125.54 422.63 117.13 438.28 109.39 454.2 102.36 470.25 96.03 486.26 90.39 502.07 85.38 517.51 80.91 532.42 76.9 546.64 73.21 560.05 69.74 572.51 66.35 583.93 62.92 594.24 59.32 603.4 55.46 617.67 46.35 628.68 35.86 635.23 22.96 640 8.8 618.09 -9.58 600.52 -27.97 590.76 -46.35 590.76 -64.74 600.5 -83.12 618.06 -101.51 639.97 -119.89 661.88 -138.28 649.1 -138.1 636.32 -138.05 623.55 -138.11 610.77 -138.3 598 -138.6 585.22 -138.98 572.45 -139.43 559.67 -139.92 546.89 -140.41 534.12 -140.87 521.34 -141.28 508.57 -141.61 495.79 -141.83 483.02 -141.94 470.24 -141.92 457.46 -141.78 444.69 -141.53 431.91 -141.17 419.14 -140.75 406.36 -140.27 393.58 -139.78 380.81 -139.3 368.03 -138.87 355.26 -138.51 342.48 -138.24 329.71 -138.08 316.93 -138.05 304.15 -138.14 291.38 -138.35 278.6 -138.66 265.83 -139.06 253.05 -139.52 240.27 -140.01 227.5 -140.5 214.72 -140.95 201.95 -141.35 189.17 -141.66 176.4 -141.86 163.62 -141.94 150.84 -141.9 138.07 -141.74 125.29 -141.47 112.52 -141.1 99.74 -140.66 86.96 -140.18 74.19 -139.69 61.41 -139.22 48.64 -138.8 35.86 -138.45 23.09 -138.2 10.31 -138.07 -2.46 -138.06 -15.23 -138.17 -28.01 -138.4 -40.78 -138.73 -53.56 -139.14 -66.34 -139.61 -79.11 -140.1 -91.89 -140.58 -104.66 -141.03 -117.44 -141.41 -130.21 -141.7 -143.29 -138.35 -131.66 -127.52 -120.02 -120 -108.68 -112.23 -97.64 -104.18 -86.85 -95.87 -76.28 -87.32 -65.86 -78.58" fill="url(#uuunion-grad2)" filter="url(#uuunion-blur)"></path><path d="M602.67 429.04Q617.86 422.47 633.05 413.54 650.37 405.22 649.12 422.07 653.75 436.88 665.72 451.68 683.28 466.48 703.87 481.29 724.48 496.09 742.09 510.89 754.14 525.69 758.86 540.5 755.57 555.3 744.74 570.1 727.95 584.91 707.67 599.71 686.85 614.51 668.53 629.32 655.4 644.12 649.37 658.92 651.31 673.73 660.96 688.53 676.9 703.33 696.79 718.14 717.74 732.94 736.68 747.74 750.84 762.55 758.16 777.35 757.56 792.15 749.14 806.96 734.12 821.76 714.7 836.56 693.72 851.37 674.23 866.17 663.63 879.67 653.02 893.19 642.42 906.04 631.81 917.58 621.21 927.23 610.6 934.51 600 939.04 589.39 940.59 578.79 939.1 568.18 934.64 557.58 927.42 546.97 917.82 536.37 906.31 525.76 893.48 515.16 879.97 504.55 866.46 493.95 853.64 483.34 842.14 472.74 832.54 462.13 825.33 451.53 820.88 440.92 819.4 430.32 820.96 419.71 825.5 409.11 832.78 398.5 842.44 387.9 853.99 377.29 866.85 366.69 880.36 356.08 893.86 345.48 906.66 334.87 918.12 324.27 927.66 313.66 934.81 303.06 939.19 292.45 940.59 281.85 938.95 271.24 934.33 260.64 926.99 250.03 917.27 239.43 905.69 228.82 892.81 218.21 879.28 207.61 865.79 197 853.01 186.4 841.6 175.79 832.11 165.19 825.04 154.58 820.73 143.98 819.4 133.37 821.12 122.77 825.81 112.16 833.22 101.56 842.99 90.95 854.62 80.35 867.52 69.74 881.06 59.14 894.54 48.53 907.29 37.93 918.66 27.32 928.09 16.72 935.1 1.55 934.67 -1.38 919.43 0.25 908.86 1.81 898.28 3.18 887.71 4.28 877.13 5.49 861.28 6.47 856 19.84 847.58 33 835.74 45.9 820.85 58.47 803.53 70.69 784.52 82.52 764.66 93.95 744.84 104.97 725.93 115.61 708.75 125.91 693.97 135.91 682.1 145.68 673.47 155.29 668.2 164.83 666.16 174.41 667.05 184.12 670.36 194.07 675.44 204.35 681.54 215.07 687.84 226.32 693.54 238.16 697.87 250.66 700.16 263.87 699.91 277.79 696.76 292.45 690.55 307.81 681.33 323.83 669.34 340.45 654.98 357.57 638.82 375.09 621.52 392.88 603.82 410.8 586.45 428.7 570.13 446.44 555.5 463.84 543.06 480.76 533.18 497.04 526.05 512.56 521.68 527.2 519.9 540.85 520.38 553.44 522.66 564.93 526.14 575.3 530.18 584.57 534.11 599.58 538.16 612 536.76 617.05 532.05 621.71 524.85 626.19 515.27 630.68 503.56 635.42 490.12 640.61 475.44 646.48 460.1 653.22 444.69 661.02 429.8 670.04 415.97 680.4 403.69 692.21 393.3 705.53 385.03 720.38 378.97 720.28 369.67 697.59 372.87 688.1 377.24 678.61 382.56 669.12 388.6 659.63 395.11 650.13 401.83 640.64 408.47 631.15 414.75 621.66 420.43 612.17 425.26 602.67 429.04" fill="url(#uuunion-grad3)" filter="url(#uuunion-blur2)"></path></svg>