<svg xmlns="http://www.w3.org/2000/svg" version="1.1" xmlns:xlink="http://www.w3.org/1999/xlink" xmlns:svgjs="http://svgjs.dev/svgjs" viewBox="0 0 800 800"><defs><filter id="ssspot-filter" x="-20%" y="-20%" width="140%" height="140%" filterUnits="objectBoundingBox" primitiveUnits="userSpaceOnUse" color-interpolation-filters="sRGB">
	<feTurbulence type="turbulence" baseFrequency="0.022 0.218" numOctaves="2" seed="89" stitchTiles="stitch" x="0%" y="0%" width="100%" height="100%" result="turbulence"></feTurbulence>
	<feGaussianBlur stdDeviation="0 3" x="0%" y="0%" width="100%" height="100%" in="turbulence" edgeMode="duplicate" result="blur"></feGaussianBlur>
	<feDisplacementMap in="SourceGraphic" in2="blur" scale="32" xChannelSelector="R" yChannelSelector="B" x="0%" y="0%" width="100%" height="100%" result="displacementMap"></feDisplacementMap>
</filter></defs><rect width="100%" height="100%" fill="#fef6e4"></rect><g fill="#8bd3dd" filter="url(#ssspot-filter)"><circle r="5.518868381574556" cx="61.57139939386248" cy="646.2876477935577" opacity="0.6578039567620133"></circle><circle r="4.726199475537124" cx="446.3810835927375" cy="669.5414990521696" opacity="0.7003661641533396"></circle><circle r="4.1296385990174045" cx="641.8247360135497" cy="758.0611378710715" opacity="0.31852424244244326"></circle><circle r="4.024690292005446" cx="705.2281556617759" cy="220.59789864497662" opacity="0.2901186351273608"></circle><circle r="7.03136809896986" cx="615.1902055535558" cy="478.64641766419646" opacity="0.28065459081580135"></circle><circle r="3.1144386504704995" cx="623.9442393022102" cy="292.4777094319891" opacity="0.37369097543064655"></circle><circle r="5.9063475582126665" cx="415.94674937499076" cy="690.272711278679" opacity="0.29754522817108076"></circle><circle r="3.7602356800935235" cx="389.89022171028745" cy="596.7195400006351" opacity="0.1266503650625457"></circle><circle r="3.201479319941094" cx="215.79245794627056" cy="12.33476011115688" opacity="0.9163359578013615"></circle><circle r="5.370130605797639" cx="448.52444996120704" cy="245.92911395807968" opacity="0.17189156620286167"></circle><circle r="5.669856003556177" cx="336.6147540878779" cy="40.772445886196735" opacity="0.9128029790211196"></circle><circle r="5.395468757186984" cx="534.6686838609139" cy="331.3499240171223" opacity="0.9560683593668312"></circle><circle r="5.909524766432218" cx="451.6245589800533" cy="466.9111056358237" opacity="0.5172816814295569"></circle><circle r="5.47736633131589" cx="243.3807268771587" cy="292.6437077495376" opacity="0.2787762956560782"></circle><circle r="4.696497279457931" cx="242.96349875798012" cy="588.2917651251595" opacity="0.4165118903448932"></circle><circle r="4.456632049395342" cx="374.61497173013055" cy="642.7119704129267" opacity="0.11599827859088149"></circle><circle r="5.689696943630982" cx="744.1262990653147" cy="332.3118236794161" opacity="0.33122300703116103"></circle><circle r="3.128763134867022" cx="165.9987155306045" cy="267.35790807478475" opacity="0.4464358312319441"></circle><circle r="4.727659648663076" cx="269.32014261987973" cy="218.28162001947163" opacity="0.3804776361708978"></circle><circle r="3.5958442067695415" cx="492.94145819040693" cy="358.35250206459386" opacity="0.9921226335303868"></circle><circle r="5.064405943412101" cx="721.7988705909346" cy="183.68796117656046" opacity="0.779359578512199"></circle><circle r="3.8657544042605303" cx="66.77215213744186" cy="430.47214626027295" opacity="0.26107523707749514"></circle><circle r="4.546016211539378" cx="625.0204389296272" cy="673.6438405891541" opacity="0.7317615628556775"></circle><circle r="3.3682500075490327" cx="650.0843979337286" cy="318.2886971219661" opacity="0.4228727717390003"></circle><circle r="7.317090119362706" cx="524.5399830225784" cy="199.6957623304411" opacity="0.6868286659521975"></circle><circle r="4.985538910812297" cx="736.591812336478" cy="71.92744261670794" opacity="0.9451744651214405"></circle><circle r="4.7618768432790315" cx="27.630085497423988" cy="763.8201900960245" opacity="0.5375218512261708"></circle><circle r="4.908319464336725" cx="29.69447472990514" cy="492.8749337121872" opacity="0.6509655888641397"></circle><circle r="7.566441890254948" cx="369.4139631015954" cy="60.60497232597224" opacity="0.4943068889511709"></circle><circle r="4.946061320367566" cx="224.20834387289167" cy="178.3999516123507" opacity="0.3943848163581424"></circle><circle r="6.105524187673848" cx="358.87241173153024" cy="140.30617837683027" opacity="0.2880391820978571"></circle><circle r="4.999983617984973" cx="183.79726277756157" cy="407.96823668226705" opacity="0.4909310538370437"></circle><circle r="7.4417921056547565" cx="592.5079403544568" cy="781.4140497910879" opacity="0.8591044907505848"></circle><circle r="5.038915388128" cx="633.3274757717802" cy="451.57010433771114" opacity="0.4202495988740036"></circle><circle r="4.161423665532597" cx="349.6878987050092" cy="369.54306319404856" opacity="0.6647976511171598"></circle><circle r="6.2490289002266" cx="90.39416688150793" cy="485.5217130645828" opacity="0.43645586313581497"></circle><circle r="5.483179783658363" cx="321.86839803129175" cy="547.8118930665478" opacity="0.16206129141192635"></circle><circle r="3.8463507586668904" cx="790.3801516148626" cy="642.0309052080136" opacity="0.6059785639966369"></circle><circle r="6.294923795272705" cx="622.9213326369849" cy="117.17935582245208" opacity="0.8849683265486337"></circle><circle r="4.234314832518447" cx="734.1393385348172" cy="209.09359383522204" opacity="0.26964972281658184"></circle><circle r="4.812301627962565" cx="48.094259466177405" cy="675.2268159841105" opacity="0.6168775782655892"></circle><circle r="3.6488899020441945" cx="38.90939354559621" cy="447.35811619272494" opacity="0.508080973297594"></circle><circle r="5.021985748144363" cx="223.5447307536037" cy="465.1639632082296" opacity="0.8335162547653056"></circle><circle r="6.777164050196496" cx="616.9502888861133" cy="317.4771919554133" opacity="0.39999044276550755"></circle><circle r="5.18587604135876" cx="456.8756029318067" cy="566.9118827783886" opacity="0.8636659202318063"></circle><circle r="6.151809831885527" cx="232.90274762343893" cy="720.2468256390805" opacity="0.8341253180748271"></circle><circle r="4.665370855663485" cx="389.76503831532676" cy="337.5290027368658" opacity="0.21190750182481738"></circle><circle r="4.545449341376646" cx="620.3722250326447" cy="777.286197296981" opacity="0.9089344120856182"></circle><circle r="4.279076443596383" cx="433.59127228950274" cy="311.7779822598476" opacity="0.1286594242577377"></circle><circle r="7.511651959164732" cx="240.87499923775422" cy="327.6077110752321" opacity="0.985708921880951"></circle><circle r="7.194687222860386" cx="678.7615664109032" cy="479.2817600909402" opacity="0.28093549978592786"></circle><circle r="7.4693927164581275" cx="694.7135093083241" cy="123.63711566587303" opacity="0.1705936344980004"></circle><circle r="4.652592623741557" cx="786.4524163371921" cy="56.79224612218792" opacity="0.9184917846546691"></circle><circle r="5.873938206604674" cx="757.5668569626126" cy="51.49624233631072" opacity="0.307324965086325"></circle><circle r="3.599336009422044" cx="258.00842892818366" cy="477.9886757181125" opacity="0.5229510302572742"></circle><circle r="4.006830605334333" cx="245.93253928066704" cy="451.9887567756851" opacity="0.7672131799558788"></circle><circle r="3.824964974300695" cx="14.16024069118787" cy="572.2124704162088" opacity="0.5226084790908526"></circle><circle r="10.266821047003706" cx="136.56931632482807" cy="74.50559016512342" opacity="0.7138985349774901"></circle><circle r="8.738578732172215" cx="129.44237349063204" cy="118.62969268648311" opacity="0.8982988355631832"></circle><circle r="4.246012530721715" cx="334.18820407612367" cy="347.7633654830461" opacity="0.7193756670155363"></circle><circle r="7.480127412580204" cx="546.6956070988423" cy="540.6035761536685" opacity="0.3142324577623399"></circle><circle r="6.333121210304186" cx="396.9664692959426" cy="399.39100762113816" opacity="0.8611212140543621"></circle><circle r="6.324700143137438" cx="538.4616022949424" cy="250.56661042913916" opacity="0.9179458055526092"></circle><circle r="6.146174978601987" cx="141.98540820415988" cy="660.1965313070905" opacity="0.10925801479172487"></circle><circle r="3.418216872854901" cx="659.5258798064867" cy="264.6431487386539" opacity="0.7749571708134738"></circle><circle r="4.432218011434781" cx="424.5799694703939" cy="133.35256874926543" opacity="0.853154894037987"></circle><circle r="5.11124471891031" cx="90.74480059659787" cy="373.31617212311164" opacity="0.5236079868991881"></circle><circle r="4.275139745163608" cx="631.7364053185147" cy="733.1178825627592" opacity="0.4288954135277637"></circle><circle r="4.796198078849358" cx="375.751707780012" cy="264.4311177874795" opacity="0.2533593970616907"></circle><circle r="6.094279112560891" cx="784.3076198980139" cy="292.39787959055" opacity="0.35881448673873984"></circle><circle r="5.289477382883471" cx="384.66064246899185" cy="770.2543036806871" opacity="0.4649641159335074"></circle><circle r="6.6626922934216" cx="638.234651831402" cy="414.2987379224887" opacity="0.41639519230081723"></circle><circle r="4.81396103486683" cx="678.599115185931" cy="385.58664252501654" opacity="0.5423211634928989"></circle><circle r="3.2988720069357" cx="184.7745919644602" cy="492.6110275552769" opacity="0.12575938135276585"></circle><circle r="9.16461098179895" cx="270.453798740574" cy="61.48728112820335" opacity="0.5116565343816981"></circle><circle r="2.566909264521236" cx="7.592091547808715" cy="650.2751109792991" opacity="0.37252648428966995"></circle><circle r="5.136181004297772" cx="125.94342947602667" cy="546.2454509075642" opacity="0.9032987477698435"></circle><circle r="10.5569956499612" cx="271.91960519275716" cy="719.9454533312897" opacity="0.9694474522506092"></circle><circle r="5.176228387192493" cx="693.0001527008703" cy="176.78070721629402" opacity="0.9399040059913693"></circle><circle r="6.887092706078306" cx="169.36943033980765" cy="717.7336466277679" opacity="0.7979235685817297"></circle><circle r="5.516634217330597" cx="132.19357390306857" cy="782.7959191894385" opacity="0.6886284731646982"></circle><circle r="3.884773209656048" cx="398.7976903353604" cy="234.20112189686222" opacity="0.8543759439130268"></circle><circle r="6.436098988149794" cx="331.957761019845" cy="492.8539015011718" opacity="0.37912661632852396"></circle><circle r="5.981054587154015" cx="73.55850846207062" cy="606.1174504975107" opacity="0.9868581338224776"></circle><circle r="5.117278396809298" cx="648.915552204604" cy="289.9387837143859" opacity="0.4021551510154897"></circle><circle r="4.48333178226946" cx="213.5423362576732" cy="416.64795974856065" opacity="0.6597270477349084"></circle><circle r="5.361443995283166" cx="676.7499411500512" cy="673.9257370649657" opacity="0.3439750175445698"></circle><circle r="5.227148376706687" cx="151.52304818793002" cy="525.6835076687347" opacity="0.35968135525735523"></circle><circle r="4.4286223596372345" cx="616.6446592383187" cy="211.52554861393955" opacity="0.4379581152382016"></circle><circle r="5.729754052971931" cx="680.8016747232302" cy="204.6709541255282" opacity="0.1861063201030131"></circle><circle r="7.05835570857017" cx="285.1769695298284" cy="268.6324362210881" opacity="0.9991943117999584"></circle><circle r="4.112750585757158" cx="85.86416328316777" cy="783.6217577272728" opacity="0.6428853601167728"></circle><circle r="6.731636303756641" cx="29.252908521040432" cy="26.593181654810913" opacity="0.766468840305668"></circle><circle r="4.08694439236037" cx="336.8995398348378" cy="461.1055198901247" opacity="0.7984720294636111"></circle><circle r="3.6387367511704434" cx="194.28339274654246" cy="464.37062683094746" opacity="0.19087725804924605"></circle><circle r="5.503227371481872" cx="74.49986332899314" cy="703.4852549944455" opacity="0.6697666077211952"></circle><circle r="5.124925605651796" cx="508.6595604091873" cy="258.53061539277587" opacity="0.3343646411926492"></circle><circle r="5.807885520908956" cx="649.1695878504156" cy="480.6458255813154" opacity="0.24356308985909245"></circle><circle r="5.729457333566165" cx="267.8721761779275" cy="394.56558449043746" opacity="0.45811364706814106"></circle><circle r="5.935967192830023" cx="430.66237843692613" cy="521.695471738177" opacity="0.42600769343340306"></circle><circle r="5.4494603396242765" cx="247.48130908882007" cy="103.6701009362754" opacity="0.9688385646796923"></circle><circle r="7.850942212183444" cx="176.5122813472062" cy="34.16313268260035" opacity="0.24048393012711786"></circle><circle r="4.355157179967389" cx="629.7536580328283" cy="262.72824255824844" opacity="0.5196203099526451"></circle><circle r="5.255981061697368" cx="22.732192265340903" cy="331.7487778497577" opacity="0.5075661461856278"></circle><circle r="4.025816876654009" cx="400.82558205892803" cy="619.5042455318093" opacity="0.21092424555512707"></circle><circle r="5.213859840721851" cx="719.7305684995432" cy="469.94108797758656" opacity="0.9817358287003144"></circle><circle r="7.158473822770874" cx="385.2521599197043" cy="710.9581023522232" opacity="0.23300751347940166"></circle><circle r="8.744293258843253" cx="516.5426618902046" cy="743.5906204740288" opacity="0.4825612256047592"></circle><circle r="4.8876946855509145" cx="55.89744310476537" cy="357.17370981661463" opacity="0.38935895121373965"></circle><circle r="3.4534799817602604" cx="390.6819469385764" cy="548.3172459777969" opacity="0.17659006415517792"></circle><circle r="4.82401076808032" cx="539.819498249922" cy="224.53104436561367" opacity="0.18261593855747238"></circle><circle r="6.790976035001238" cx="692.953301511907" cy="557.6699420677045" opacity="0.19888568960101066"></circle><circle r="6.431336659981816" cx="235.18959014008428" cy="493.6648034272968" opacity="0.2683248575648465"></circle><circle r="7.589906115550609" cx="141.32472885096627" cy="23.217039664310892" opacity="0.18765075487987162"></circle><circle r="4.513164555469877" cx="372.73832468071345" cy="226.26388137180174" opacity="0.48534170377556674"></circle><circle r="6.562319842801957" cx="58.37365374298628" cy="486.9160947107854" opacity="0.7124595961319602"></circle><circle r="5.917939494067727" cx="711.0717107271903" cy="290.94573146942287" opacity="0.5271444209389378"></circle><circle r="8.668145015721624" cx="425.2272339953115" cy="272.8350109630702" opacity="0.2455879281026189"></circle><circle r="6.371243760022209" cx="431.7259777042911" cy="758.9298345141161" opacity="0.746607281457424"></circle><circle r="9.378929559890189" cx="778.3031666151752" cy="720.0229162117464" opacity="0.24365834187693072"></circle><circle r="4.78537413340425" cx="184.6618241496614" cy="542.5262074624777" opacity="0.5683460043004741"></circle><circle r="5.331306554811697" cx="567.2094192128967" cy="12.720953711585766" opacity="0.8682715916332345"></circle><circle r="4.3607461670542245" cx="250.1582203406822" cy="422.5657214167864" opacity="0.2473586280060541"></circle><circle r="2.172839273313508" cx="692.9816398193265" cy="263.1899567097324" opacity="0.41037982634233705"></circle><circle r="5.297288403138429" cx="414.23300709448745" cy="544.4128506578785" opacity="0.7088440069583396"></circle><circle r="4.209513708524183" cx="418.86113094727165" cy="378.8006680516426" opacity="0.21933575931245797"></circle><circle r="5.572582121965816" cx="652.677742643437" cy="536.8078854525843" opacity="0.3511408663475801"></circle><circle r="4.208549933873305" cx="69.00983750187119" cy="544.225419852235" opacity="0.10828107459075537"></circle><circle r="6.1838647618561176" cx="435.322692558452" cy="427.77205568480315" opacity="0.9244116481988115"></circle><circle r="7.202211943152705" cx="399.0351657690464" cy="432.7380036574981" opacity="0.5442065945232927"></circle><circle r="7.821555055723064" cx="251.64839460674648" cy="145.7902435526317" opacity="0.2743749775246159"></circle><circle r="4.360371447816131" cx="601.996951712068" cy="514.5806676758344" opacity="0.47405142413313683"></circle><circle r="4.300636703108543" cx="635.5178513079355" cy="508.76877792554063" opacity="0.4027323723023155"></circle><circle r="5.906187637725782" cx="310.0678779031502" cy="460.37524596435446" opacity="0.6297687378877308"></circle><circle r="5.837073375043824" cx="422.2944642854843" cy="345.54131407837855" opacity="0.532134494687823"></circle><circle r="4.084131346865919" cx="436.7552528886232" cy="43.685001244160766" opacity="0.8029270902499852"></circle><circle r="8.73943940147435" cx="739.3109559028178" cy="623.5495409556778" opacity="0.9080221942868237"></circle><circle r="7.134670181131012" cx="468.76793114896276" cy="415.7698164389847" opacity="0.7576128710751657"></circle><circle r="6.859531161321019" cx="675.7728786941054" cy="721.736354182108" opacity="0.8067248810956169"></circle><circle r="3.8263681375660346" cx="194.5909307373783" cy="756.6463139806897" opacity="0.7639586874911092"></circle><circle r="6.799021911946691" cx="280.92862988130156" cy="114.67612122408852" opacity="0.749941241156944"></circle><circle r="4.43489886908551" cx="676.611631131023" cy="779.6478868573888" opacity="0.7016500969410936"></circle><circle r="3.877352849746549" cx="346.60510197762835" cy="669.440532886286" opacity="0.863795653659447"></circle><circle r="10.171990666083355" cx="90.83697252643653" cy="29.61130091100573" opacity="0.6999735237363884"></circle><circle r="2.4963137691937467" cx="692.6605542242379" cy="246.80714764700474" opacity="0.38453951698266053"></circle><circle r="8.373263843825248" cx="90.19541823836119" cy="143.25490275818163" opacity="0.3802996956228949"></circle><circle r="6.121623356871757" cx="475.5438860681072" cy="728.8618192688715" opacity="0.8188896590880368"></circle><circle r="4.469410053553066" cx="405.86110647108285" cy="738.4013380247418" opacity="0.49983782294526236"></circle><circle r="3.1560900954315834" cx="472.6382683401692" cy="234.81667408890033" opacity="0.49521871482746427"></circle><circle r="5.2814947689148255" cx="397.9031170084547" cy="311.0665989891397" opacity="0.623396370354658"></circle><circle r="4.914634258215351" cx="561.5308220657721" cy="396.12442659532786" opacity="0.9027234486451698"></circle><circle r="4.1859828600432305" cx="290.7960494247854" cy="362.48498137115087" opacity="0.5169815082912397"></circle><circle r="5.828505742426955" cx="582.578711765462" cy="274.10343327458423" opacity="0.8115978914904882"></circle><circle r="4.903463340751179" cx="207.59733743979973" cy="362.39392323395475" opacity="0.8214723077321114"></circle><circle r="3.2291247731109367" cx="680.1425182721206" cy="278.92420873170533" opacity="0.7531469677422018"></circle><circle r="5.315081066624001" cx="392.067379995887" cy="573.1935837957894" opacity="0.4221459651237953"></circle><circle r="4.470726616575018" cx="616.8723749316835" cy="543.6830082318213" opacity="0.616351381386014"></circle><circle r="5.9808919425214055" cx="161.62828722605946" cy="458.9719628743565" opacity="0.8538638947062872"></circle><circle r="3.404401458145068" cx="177.37512783114718" cy="791.6011354467837" opacity="0.1595823523008641"></circle><circle r="4.237782823491749" cx="93.9759084458365" cy="338.94856506350453" opacity="0.1620501048961722"></circle><circle r="7.299047942225008" cx="678.1509632230171" cy="519.7635620766512" opacity="0.3703336932220199"></circle><circle r="6.64407427782781" cx="208.8147142897603" cy="94.79836937164141" opacity="0.13374676095514332"></circle><circle r="7.400143252354855" cx="781.8676429831581" cy="371.94335520850797" opacity="0.8463203693500869"></circle><circle r="4.0177257131546575" cx="92.6424616814703" cy="258.51907965905787" opacity="0.18270089931826344"></circle><circle r="6.040697445191734" cx="131.29394468761183" cy="444.8635711993141" opacity="0.34967298408246017"></circle><circle r="6.657388022464165" cx="689.9828450977315" cy="319.30142641590174" opacity="0.9669136450176224"></circle><circle r="8.730969294766602" cx="550.3107782127132" cy="53.74473581029641" opacity="0.3922135993762811"></circle><circle r="5.3578446201511785" cx="16.721433486043953" cy="91.45684713820215" opacity="0.97698182832456"></circle><circle r="4.784700357006758" cx="221.22809953198467" cy="561.4068368320271" opacity="0.23278088429520152"></circle><circle r="8.068121238072592" cx="346.63578529574374" cy="94.7631832923856" opacity="0.3246956073796658"></circle><circle r="5.210806205713547" cx="122.28796610362944" cy="268.8324757330711" opacity="0.35443214870455175"></circle><circle r="5.6628096958706955" cx="416.26618051852455" cy="663.3187052729397" opacity="0.4028700719163548"></circle><circle r="5.724210513979974" cx="579.1941152532593" cy="175.63410008561146" opacity="0.8376864366737214"></circle><circle r="6.045248874292707" cx="730.2851308614468" cy="107.73929209551599" opacity="0.6355988695892201"></circle><circle r="3.9610167513043026" cx="647.5314960528582" cy="787.866848020343" opacity="0.2247392668808477"></circle><circle r="6.019477809398966" cx="381.27928593642866" cy="677.1952858228321" opacity="0.6220655086162786"></circle><circle r="5.8296568228509" cx="310.9215686058311" cy="700.9568556997241" opacity="0.7020257441429666"></circle><circle r="5.093925022194785" cx="8.31634527390429" cy="478.79975045675" opacity="0.13334508614423657"></circle><circle r="5.525830248280332" cx="658.0996495878014" cy="398.97744344335655" opacity="0.48460397409836387"></circle><circle r="5.2567977414070945" cx="359.7403246965423" cy="14.840819883062634" opacity="0.3397177796005185"></circle><circle r="6.965743911804437" cx="148.23204689084412" cy="416.3548459211873" opacity="0.3831044091491882"></circle><circle r="5.185612692761753" cx="331.11421316170697" cy="609.0743447015753" opacity="0.44606082091816557"></circle><circle r="4.8612894261060715" cx="651.7846580987025" cy="647.3501365466676" opacity="0.12090467308467862"></circle><circle r="4.937907609470292" cx="649.4792456907697" cy="703.5860941301133" opacity="0.7792976006062271"></circle><circle r="7.525559283429593" cx="394.2519028712237" cy="167.51143750610282" opacity="0.6820238954135104"></circle><circle r="4.648866350825332" cx="251.8741329324815" cy="359.46059663679034" opacity="0.6921840411011148"></circle><circle r="7.6706344360577905" cx="354.6168905501975" cy="741.4506915670187" opacity="0.19677584887029081"></circle><circle r="3.6785098177027895" cx="533.0549870050604" cy="388.9117006747328" opacity="0.9331032191777668"></circle><circle r="6.709385767039832" cx="508.92007711926266" cy="157.53504949786486" opacity="0.37102550480352015"></circle><circle r="4.64348463908397" cx="660.2695348410215" cy="571.0634642966743" opacity="0.29948140371666543"></circle><circle r="5.505957457972599" cx="158.34007157074547" cy="286.7435916521182" opacity="0.4024355140820354"></circle><circle r="4.862241572968593" cx="315.13293491979476" cy="125.28875174628168" opacity="0.7242973079911997"></circle><circle r="5.634363600042052" cx="702.4140286143154" cy="391.5880332426864" opacity="0.12135725694378373"></circle><circle r="7.85729199679524" cx="139.35211547034567" cy="200.90413792479453" opacity="0.34665421526141005"></circle><circle r="5.20780142651205" cx="364.05787805992554" cy="185.19041033673278" opacity="0.18064223345162012"></circle><circle r="3.917793002492153" cx="205.12516260032825" cy="51.10415312149433" opacity="0.53612309548883"></circle><circle r="4.742090230251673" cx="583.4794931128117" cy="464.0764884984007" opacity="0.6155770122617471"></circle><circle r="5.028606321531827" cx="47.20438171300682" cy="159.90597407361656" opacity="0.8397672904838851"></circle><circle r="3.05069893312738" cx="417.6316870113519" cy="788.1131084649246" opacity="0.1388641242029291"></circle><circle r="4.477480196514793" cx="696.5183258884613" cy="751.4099383155168" opacity="0.13884778675173304"></circle><circle r="5.068983631165439" cx="241.47414471258642" cy="223.6839829818856" opacity="0.736715808230404"></circle><circle r="4.097856318218438" cx="463.9759139325414" cy="536.4025703130893" opacity="0.40524282839664916"></circle><circle r="7.593255690577081" cx="229.61753679517625" cy="392.0999184728346" opacity="0.21450651399083595"></circle><circle r="9.836680137715893" cx="550.7399993477395" cy="774.5287606449967" opacity="0.3460366527064351"></circle><circle r="6.04429299221961" cx="167.93313878051615" cy="137.48692657061054" opacity="0.4978049723947543"></circle><circle r="3.147532417017391" cx="719.210894540869" cy="551.6211089816402" opacity="0.3018091907116388"></circle><circle r="8.100213449408812" cx="190.91931808268578" cy="164.77330339625394" opacity="0.610175018945243"></circle><circle r="4.805483761854158" cx="701.9610215971114" cy="430.08457556879665" opacity="0.4281017665697111"></circle><circle r="4.7983656360054585" cx="525.5992469283402" cy="468.5762592607164" opacity="0.4040167569810328"></circle><circle r="3.7053887983986136" cx="713.556906435257" cy="259.96695589914805" opacity="0.6414778812156968"></circle><circle r="5.932533877141303" cx="678.986833227815" cy="54.749939222447" opacity="0.5938918468453129"></circle><circle r="7.822305357394225" cx="722.5967897773694" cy="28.292485227983835" opacity="0.6116282285114514"></circle><circle r="5.310041126905382" cx="563.4035428081951" cy="131.92220746734145" opacity="0.35788653713911944"></circle><circle r="4.386361511879486" cx="550.7364220631307" cy="277.0910566790469" opacity="0.11807419227769822"></circle><circle r="5.949973885128084" cx="344.4934582739108" cy="253.0180828677463" opacity="0.743610541675416"></circle><circle r="5.9375341904672565" cx="476.75957288238425" cy="139.41275790102117" opacity="0.9525813070608546"></circle><circle r="4.784960905308449" cx="303.50727854734725" cy="391.675856147813" opacity="0.7615706270362933"></circle><circle r="7.435683052856305" cx="753.972161673426" cy="236.35160783375866" opacity="0.6056723325810519"></circle><circle r="10.321353864507593" cx="775.7952101301491" cy="200.24097983599023" opacity="0.5498829659165336"></circle><circle r="6.5717172542539934" cx="513.683775257468" cy="632.3573373640013" opacity="0.1911832119623833"></circle><circle r="5.160643486908797" cx="425.0508013859181" cy="225.80558179600774" opacity="0.2375026580257658"></circle><circle r="2.7881444700136595" cx="180.76456182272088" cy="222.34529886438517" opacity="0.5231379141130547"></circle><circle r="7.436921054298414" cx="438.74299899994685" cy="632.6580382176539" opacity="0.14656090424144597"></circle><circle r="7.917922897228969" cx="615.6873238042072" cy="575.8120006460396" opacity="0.7011002147929798"></circle><circle r="5.815010289573699" cx="208.6077188613237" cy="733.2949516136738" opacity="0.44775396238772736"></circle><circle r="6.609945949796131" cx="380.09974443091113" cy="517.6258285974185" opacity="0.5885545827826383"></circle><circle r="8.24643643052608" cx="738.5674779836119" cy="439.2816004223356" opacity="0.13546575942600797"></circle><circle r="4.234466498424532" cx="541.2963477288835" cy="304.26499784072394" opacity="0.46740573103329386"></circle><circle r="4.039397183464913" cx="625.9030300074583" cy="161.27303905673116" opacity="0.27094399279047787"></circle><circle r="8.688751982285437" cx="782.4699323305549" cy="253.22059319095695" opacity="0.41273988481195767"></circle><circle r="9.511300591342565" cx="535.1199510996885" cy="500.48397761917266" opacity="0.9904225714920354"></circle><circle r="3.910838003037231" cx="209.89819625054795" cy="441.5066369917241" opacity="0.5805003801969205"></circle><circle r="5.0251154582343736" cx="325.05942068617315" cy="287.90813236873606" opacity="0.1885406078520423"></circle><circle r="4.173012455479924" cx="46.90869450427733" cy="707.1298811440777" opacity="0.5365117546626464"></circle><circle r="3.02808240768662" cx="437.28851108087974" cy="546.3122833395888" opacity="0.39204509130888"></circle><circle r="6.027729273192945" cx="13.944367690789145" cy="615.2195939943207" opacity="0.24871540342566595"></circle><circle r="5.693320360689436" cx="78.28412040471302" cy="279.1490480240831" opacity="0.844812081997936"></circle><circle r="6.268716595124008" cx="461.6302893212965" cy="698.0274931704934" opacity="0.7461467582691507"></circle><circle r="5.051965557627331" cx="651.7744428829322" cy="676.5695043146817" opacity="0.4120514416805292"></circle><circle r="6.384236020955416" cx="639.852275974052" cy="187.34115707248267" opacity="0.3084306481783896"></circle><circle r="7.719641502269339" cx="296.1584481931942" cy="21.038637355504036" opacity="0.8766944853677247"></circle><circle r="5.7243977599911124" cx="483.00153802551415" cy="457.54582400744624" opacity="0.36927890686308396"></circle><circle r="7.7531090983561555" cx="254.82981345150938" cy="257.1378459508868" opacity="0.3991144978229867"></circle><circle r="7.6815965217989906" cx="149.01630997583948" cy="349.1060051023902" opacity="0.4940011696436919"></circle><circle r="9.012635316543275" cx="469.71323559760646" cy="279.61608949443445" opacity="0.7746873206319677"></circle><circle r="7.5698442443732805" cx="271.79512242561805" cy="776.5978752985363" opacity="0.9434160776746624"></circle><circle r="4.870709307760313" cx="22.441080226357855" cy="733.2400364892464" opacity="0.7835051292615853"></circle><circle r="4.961759730517531" cx="501.49304762820543" cy="67.72932611051897" opacity="0.5939433307522071"></circle><circle r="5.712485350935497" cx="279.1063716571829" cy="628.946987783597" opacity="0.16642211397525414"></circle><circle r="6.263854462850421" cx="562.0865983116755" cy="625.7902726430232" opacity="0.4878271853499313"></circle><circle r="5.5214825318265195" cx="763.1800729400177" cy="316.1944767860262" opacity="0.8038999372192739"></circle><circle r="4.553742210936022" cx="99.95338274805373" cy="444.8486911246806" opacity="0.46557188737985866"></circle><circle r="3.5983539853504025" cx="66.24053184302625" cy="518.327693506204" opacity="0.2298800458270049"></circle><circle r="8.491520542703928" cx="444.4027955682888" cy="160.32259685811775" opacity="0.6823682540668763"></circle><circle r="5.878018141459391" cx="471.9279150969239" cy="46.47946811042214" opacity="0.16588077531378664"></circle><circle r="5.465949038387899" cx="592.6844187869659" cy="21.20389516477527" opacity="0.5073702458106474"></circle><circle r="4.414411159118069" cx="171.49741521198547" cy="107.4623175538293" opacity="0.28853863848716954"></circle><circle r="6.348380474262788" cx="489.34159582675466" cy="191.61293308392732" opacity="0.3273180535736921"></circle><circle r="5.663108388880857" cx="761.111154903099" cy="114.00998042320899" opacity="0.3082793527536304"></circle><circle r="3.8322533583385114" cx="392.1842594861444" cy="651.1183791783657" opacity="0.14909088019128047"></circle><circle r="5.360955784859906" cx="263.878241973732" cy="503.7510431531225" opacity="0.43787831302056734"></circle><circle r="5.385024091456686" cx="212.25443954291097" cy="129.90993876812627" opacity="0.5732760095649969"></circle><circle r="8.652202351278596" cx="238.31161482005373" cy="674.1470710585752" opacity="0.2193609705483014"></circle><circle r="3.9629555441913364" cx="326.4827906494717" cy="649.0756510847966" opacity="0.9779626136672925"></circle><circle r="4.973397924954526" cx="275.9887879706222" cy="445.665093528791" opacity="0.6994390285679124"></circle><circle r="5.6996395395543615" cx="458.6921242297258" cy="88.10337728436988" opacity="0.37989048475406484"></circle><circle r="3.8274740119347315" cx="408.78984018305994" cy="503.1726104392215" opacity="0.5575948895375124"></circle><circle r="4.5836204359383315" cx="593.4314818944812" cy="112.0919571048572" opacity="0.546550985058843"></circle><circle r="5.460403660452455" cx="531.1884541484941" cy="667.8619546469349" opacity="0.5520613176762709"></circle><circle r="5.833177693497078" cx="648.3277790437138" cy="375.06079118567163" opacity="0.5073239005196009"></circle><circle r="6.849103709706853" cx="499.6339838020001" cy="226.85061088622106" opacity="0.7320145286571388"></circle><circle r="5.8060302915789315" cx="784.6028794918655" cy="464.54353907702944" opacity="0.4360800855481385"></circle><circle r="6.83822550106998" cx="684.7856208967454" cy="18.093160440912044" opacity="0.9894756611807184"></circle><circle r="7.304770295609332" cx="464.3241074461972" cy="318.6405878009511" opacity="0.9480557572380465"></circle><circle r="4.687043892730462" cx="785.3522484268528" cy="331.20714443716366" opacity="0.8407747936841649"></circle><circle r="5.484745967585136" cx="274.151524215962" cy="553.4360926766653" opacity="0.17324751032042912"></circle><circle r="6.423561956921265" cx="27.353430323811036" cy="547.9014700880863" opacity="0.6968722120666698"></circle><circle r="4.773011069612485" cx="42.486090818060745" cy="516.9153814240293" opacity="0.9673256985212098"></circle><circle r="3.9731120302664973" cx="669.0714459449298" cy="163.03032774268905" opacity="0.8988633084236182"></circle><circle r="6.219240202122144" cx="405.48648989065435" cy="79.23965727720984" opacity="0.13127737137213097"></circle><circle r="5.818497384760333" cx="637.2643509476336" cy="15.038868504066619" opacity="0.25188656072080956"></circle><circle r="6.671969622175446" cx="125.60797129892933" cy="487.5865248621103" opacity="0.2956126631460721"></circle><circle r="9.460866993571148" cx="541.9536193908217" cy="164.3326227993228" opacity="0.574759713104399"></circle><circle r="4.768019752787655" cx="381.32146678675866" cy="360.7024040474948" opacity="0.5624660288902356"></circle><circle r="2.64458544081683" cx="403.8896814351058" cy="525.2212349319906" opacity="0.7672221212243187"></circle><circle r="6.45755151657219" cx="579.0767643261859" cy="308.1021950929848" opacity="0.7536936177126311"></circle><circle r="5.5146817624626765" cx="603.0455307801681" cy="243.91768340491217" opacity="0.7611907814866941"></circle><circle r="4.093288980316212" cx="26.06017413094647" cy="270.072082243749" opacity="0.16781793310346071"></circle><circle r="5.5135923158095395" cx="755.6194128150374" cy="483.24757235694534" opacity="0.25540975374526537"></circle><circle r="4.232149586686765" cx="507.52948468702016" cy="339.74128052257805" opacity="0.9769048390691385"></circle><circle r="6.083058758974863" cx="300.21743558929967" cy="225.53525912793611" opacity="0.4806196756324185"></circle><circle r="6.5475619121585975" cx="560.1050814846966" cy="707.838658631614" opacity="0.9746539655614558"></circle><circle r="6.379320926348213" cx="176.70220951973974" cy="197.1798912152187" opacity="0.6834557160770139"></circle><circle r="5.929020595456562" cx="445.77963553766216" cy="14.058692928612885" opacity="0.19924635984413297"></circle><circle r="6.271034263086424" cx="167.28523836663277" cy="321.6850388866891" opacity="0.2616717093123293"></circle><circle r="5.347785458187598" cx="694.9041372862811" cy="616.215943445462" opacity="0.32756919995332134"></circle><circle r="8.41273351377614" cx="709.2087272677214" cy="503.2671510374576" opacity="0.6357209460681158"></circle><circle r="7.2047416372998985" cx="246.08395220838628" cy="629.1135534902596" opacity="0.44341880146257673"></circle><circle r="3.1121360236893136" cx="284.96594722464584" cy="574.4273802311444" opacity="0.8777722146708188"></circle><circle r="11.28423083999095" cx="51.52661110699564" cy="70.92346540326814" opacity="0.9499651402619342"></circle><circle r="4.1110432891367035" cx="507.6288911177998" cy="291.0943760455146" opacity="0.5355865066040951"></circle><circle r="6.151339729592049" cx="39.27055296963741" cy="412.63725194573806" opacity="0.17381268075225528"></circle><circle r="3.72520108298248" cx="12.001050303945412" cy="438.61604728676105" opacity="0.6135011657346108"></circle><circle r="4.90933119333091" cx="261.34069599219737" cy="178.59737079608647" opacity="0.4624631968284254"></circle><circle r="6.242504208768102" cx="12.497418357910604" cy="519.1394235234511" opacity="0.32850577269419734"></circle><circle r="6.703911772145302" cx="507.4953638776052" cy="415.49929923875413" opacity="0.8819094851980052"></circle><circle r="7.345137924570899" cx="214.50773225433468" cy="211.97423639221248" opacity="0.8548197315878584"></circle><circle r="7.236789007352208" cx="571.2195478753554" cy="667.9757148284672" opacity="0.566103414367836"></circle><circle r="5.258114332349013" cx="693.0022363679919" cy="356.52024861194195" opacity="0.17837893113620273"></circle><circle r="7.589326990895021" cx="576.1654908718267" cy="564.9040103896102" opacity="0.91244918376187"></circle><circle r="6.098010510016502" cx="316.73302497023263" cy="324.41735183932354" opacity="0.44987177227783326"></circle><circle r="3.354207505985666" cx="391.5101903982754" cy="286.155227496049" opacity="0.6152123720946913"></circle><circle r="8.85391674165404" cx="486.738778615189" cy="672.3058364186865" opacity="0.9873437212823788"></circle><circle r="6.354550587477242" cx="14.146285985061235" cy="701.1554533972294" opacity="0.12066820360675824"></circle><circle r="5.23196629624873" cx="594.131353631923" cy="48.64257376997045" opacity="0.4343725575758952"></circle><circle r="5.584224459549703" cx="361.3943932919192" cy="551.2260604010746" opacity="0.16257330920566093"></circle><circle r="3.7524260091780457" cx="626.4183371540046" cy="637.5202155656484" opacity="0.4240265610190914"></circle><circle r="6.589207250948229" cx="222.35141549242584" cy="260.50841765883854" opacity="0.40013948801395105"></circle><circle r="6.862594532141779" cx="717.0762280647215" cy="151.20568524970116" opacity="0.6266878087694464"></circle><circle r="5.720140251466418" cx="742.0426634105922" cy="266.883757280409" opacity="0.7769226675388777"></circle><circle r="5.620906230147366" cx="671.2338164284733" cy="302.9717071803566" opacity="0.6354917929683747"></circle><circle r="7.617587903536439" cx="154.4228369464464" cy="575.8558489075314" opacity="0.5911062206822133"></circle><circle r="6.708667006869062" cx="422.7712813117834" cy="595.3817720637616" opacity="0.6759641259820149"></circle><circle r="4.547128545202493" cx="294.5480520911888" cy="424.6044334787876" opacity="0.252828243442344"></circle><circle r="5.6379940446254775" cx="545.3373010544617" cy="443.27206730785565" opacity="0.3400479905664586"></circle><circle r="5.050754123011432" cx="334.28756525628296" cy="576.4630654422832" opacity="0.5892141861625123"></circle><circle r="4.119139281148222" cx="95.53968401283946" cy="232.36920930983376" opacity="0.8136446312624381"></circle><circle r="4.332719071574252" cx="523.2009283676111" cy="362.4933246418" opacity="0.8781278310472762"></circle><circle r="5.333855871081372" cx="22.122401792001703" cy="371.7353324256887" opacity="0.22438255151377035"></circle><circle r="3.802591846942817" cx="365.0439234050923" cy="610.5739815925701" opacity="0.30730747959661636"></circle><circle r="4.006969025077447" cx="134.7807307964751" cy="232.44008758502827" opacity="0.2362527766176218"></circle><circle r="4.036246701717338" cx="608.0517285899264" cy="275.65984283128324" opacity="0.21893579572928273"></circle><circle r="6.875624499795054" cx="582.6696138246838" cy="363.8389168867981" opacity="0.18844262998947636"></circle><circle r="5.795877022597331" cx="152.63367187341967" cy="250.0768455969647" opacity="0.5571100420530819"></circle><circle r="6.417000119281356" cx="128.71382718165358" cy="608.0601901587684" opacity="0.8028527215499622"></circle><circle r="4.175472827955716" cx="356.8896584636446" cy="298.13710783680324" opacity="0.2454278523302057"></circle><circle r="7.3244853486043455" cx="33.28217237595379" cy="592.3819158025058" opacity="0.3486932176296619"></circle><circle r="5.324984073923978" cx="721.354220680611" cy="242.1366474586594" opacity="0.48627783667516067"></circle><circle r="6.440619110792069" cx="707.4319741244291" cy="591.3550373921742" opacity="0.36880412350409186"></circle><circle r="5.486330212024869" cx="327.7451209779951" cy="191.06370643219284" opacity="0.42340480528110636"></circle><circle r="8.549594162284958" cx="385.08460919862137" cy="108.24611212874576" opacity="0.27315732430051437"></circle><circle r="5.485978475994349" cx="558.3928165936985" cy="345.57540641794265" opacity="0.723395529634174"></circle><circle r="3.871016776509883" cx="75.75323209088661" cy="402.5362424288378" opacity="0.4555975081619674"></circle><circle r="8.40743241066955" cx="366.4115968007808" cy="488.6931492208585" opacity="0.6695146702401269"></circle><circle r="3.5857969440952386" cx="172.95462752697904" cy="773.6249838968357" opacity="0.7291352727853594"></circle><circle r="5.651531950627833" cx="605.2765491338156" cy="390.3629891190392" opacity="0.30005344266883494"></circle><circle r="5.348633886716205" cx="515.1097640060216" cy="704.0418798498422" opacity="0.20972596137323135"></circle><circle r="4.349101559255792" cx="418.77037053392877" cy="191.36343307739105" opacity="0.3443614983791196"></circle><circle r="4.619123408171666" cx="653.2610357136332" cy="342.6111638502676" opacity="0.5725607519525342"></circle><circle r="6.335790683251556" cx="160.21228950628594" cy="751.7162718330757" opacity="0.8665174362846803"></circle><circle r="6.696134026715409" cx="760.4440187071538" cy="673.6166426464777" opacity="0.2502454467393991"></circle><circle r="7.0888431816119635" cx="183.69372204335298" cy="682.0026871250076" opacity="0.44147282240800845"></circle><circle r="6.565696499303202" cx="718.1159592087581" cy="783.1189770501418" opacity="0.12518539892442201"></circle><circle r="6.334582694669185" cx="457.8177360381877" cy="506.3121275162122" opacity="0.33612319102907884"></circle><circle r="6.487802871769389" cx="358.27927347572114" cy="582.0743329418513" opacity="0.7890849315495914"></circle><circle r="7.611186311465531" cx="78.15372669219835" cy="178.90390890654953" opacity="0.47902606590157637"></circle><circle r="5.310222203821427" cx="210.30041736197674" cy="521.832712976054" opacity="0.9748649988435595"></circle><circle r="6.132624614710833" cx="205.22134431251658" cy="326.27870534771165" opacity="0.36947035527204386"></circle><circle r="5.617880258704374" cx="310.63746553708523" cy="75.59820952918672" opacity="0.3722067625414588"></circle><circle r="4.260005874834275" cx="210.05764037651898" cy="492.4418829384655" opacity="0.5258602412540665"></circle><circle r="7.484034034242518" cx="133.11290495164798" cy="377.7397208709985" opacity="0.9127236977121627"></circle><circle r="4.8188188767551905" cx="487.0646055841524" cy="102.50339547031983" opacity="0.9503398102128966"></circle><circle r="11.632468255560365" cx="775.9726542140651" cy="418.5496955706125" opacity="0.1388039371450981"></circle><circle r="5.092082758988777" cx="705.4820050125393" cy="678.0203126718803" opacity="0.9185483137970274"></circle><circle r="5.371287534789411" cx="19.92948762276025" cy="672.1411792630856" opacity="0.47137423757680563"></circle><circle r="4.616730045772323" cx="283.6375526910737" cy="473.8695288804363" opacity="0.14690227391871585"></circle><circle r="6.9326772367890666" cx="164.22664330092678" cy="633.5669266114738" opacity="0.7845353144578274"></circle><circle r="3.7460503203498714" cx="785.0931876580032" cy="574.6368486662501" opacity="0.5199957748045828"></circle><circle r="5.297459486236775" cx="18.67344292817428" cy="240.2003043038576" opacity="0.46529934544867046"></circle><circle r="7.368673985466401" cx="99.06485288755367" cy="525.6141005962062" opacity="0.6603554735644519"></circle><circle r="7.397837640537256" cx="640.3276599006141" cy="47.8620282595039" opacity="0.8920429145060952"></circle><circle r="5.201683964461724" cx="29.350294186054978" cy="644.0209455274463" opacity="0.16481668668490523"></circle><circle r="4.471154723416884" cx="674.0823712714007" cy="237.78688286858508" opacity="0.12050206315421677"></circle><circle r="8.16049966576021" cx="191.30806554430976" cy="593.995509149528" opacity="0.32133545413021336"></circle><circle r="8.624389990573931" cx="93.18984489530983" cy="90.69445018089468" opacity="0.8845370747064591"></circle><circle r="8.019764737999411" cx="287.4876512752335" cy="667.2434841743408" opacity="0.7592193586688828"></circle><circle r="4.224038867883952" cx="511.1803945816313" cy="441.6061820177007" opacity="0.6871556396516395"></circle><circle r="6.222651146891804" cx="104.67021541407897" cy="309.70023000529187" opacity="0.9424074042563738"></circle><circle r="4.302984425946735" cx="65.59185476452346" cy="741.7586688333504" opacity="0.5279231390696183"></circle><circle r="4.814597900954257" cx="598.2554060019905" cy="153.2721064052169" opacity="0.6367479929089015"></circle><circle r="4.478284582174326" cx="582.341871544214" cy="81.28327632101731" opacity="0.6652338491738518"></circle><circle r="7.507717403643052" cx="150.98467965196207" cy="168.12188290679916" opacity="0.48689219424358343"></circle><circle r="9.283737041343485" cx="56.21155107652153" cy="303.6364280996702" opacity="0.6425017464797466"></circle><circle r="7.7213217171598405" cx="569.3082115290745" cy="241.85250791092946" opacity="0.7975883452114304"></circle><circle r="8.715387697380471" cx="347.51017266303757" cy="703.3909368459097" opacity="0.20455095496044828"></circle><circle r="4.203580977123257" cx="719.9661841481142" cy="724.5314559777166" opacity="0.4425365273301973"></circle><circle r="5.909727165610894" cx="559.4690042861118" cy="200.24190469692653" opacity="0.9602639735897729"></circle><circle r="7.108058409432838" cx="596.737049549197" cy="645.5030968386955" opacity="0.12476042515846725"></circle><circle r="7.0417160014784095" cx="311.5451270163193" cy="159.30267827190463" opacity="0.21232527163824177"></circle><circle r="6.246768467363914" cx="542.82937741315" cy="593.7185478711579" opacity="0.10839386205590315"></circle><circle r="5.888495058174091" cx="605.9006178540478" cy="699.383689807775" opacity="0.9895486537943763"></circle><circle r="4.247102301667601" cx="737.7036159945652" cy="537.2225700315581" opacity="0.46534637403720935"></circle><circle r="5.302400249088644" cx="311.1129824044457" cy="579.0841336417104" opacity="0.9280574607563187"></circle><circle r="4.4423278955577095" cx="16.08325454582809" cy="177.45897242230296" opacity="0.7726991929729946"></circle><circle r="7.131761575145711" cx="310.92450188343264" cy="753.7695576054275" opacity="0.6921696013352212"></circle><circle r="2.9839323906957596" cx="425.2716816075047" cy="568.5969412536438" opacity="0.40426719031508396"></circle><circle r="5.1725345407441505" cx="102.48575218654064" cy="201.5466732293582" opacity="0.48713844927149075"></circle><circle r="7.991567725305181" cx="344.76575338076276" cy="521.6397840299945" opacity="0.7820587480589324"></circle><circle r="8.68892379730402" cx="206.3846969299508" cy="634.973754041023" opacity="0.54382819394025"></circle><circle r="7.084748419866417" cx="737.1676299578941" cy="696.8720736554419" opacity="0.973906078859979"></circle><circle r="6.040772142364107" cx="353.2431590789335" cy="636.2385028107673" opacity="0.21765295213905694"></circle><circle r="3.208680618399043" cx="503.5541460033002" cy="11.412432500660094" opacity="0.6158541505532368"></circle><circle r="4.356038693611378" cx="291.16721648025066" cy="186.49585579674078" opacity="0.17646263263738587"></circle><circle r="7.959607830191429" cx="753.1550508489343" cy="584.6515074869394" opacity="0.24086670300183946"></circle><circle r="7.6191496967567955" cx="224.56241121331493" cy="778.3814060260135" opacity="0.8397636519609545"></circle><circle r="5.758486305486231" cx="12.805897466618955" cy="403.20696839328184" opacity="0.3458251972868075"></circle><circle r="9.106130696517646" cx="56.96721398513154" cy="240.79290267040653" opacity="0.3717262381835472"></circle><circle r="4.9924171816270455" cx="602.4885674364573" cy="606.1642429914397" opacity="0.6347587637348057"></circle><circle r="4.927300519834218" cx="450.6657870975561" cy="380.0476734168809" opacity="0.4992747481252727"></circle><circle r="8.707026826082135" cx="574.0531192220352" cy="501.37280532126204" opacity="0.8623210112535877"></circle><circle r="5.440149504141109" cx="314.2235803992994" cy="253.5884749656091" opacity="0.7837804369864415"></circle><circle r="5.966433930239731" cx="55.32805967318539" cy="121.79457780778091" opacity="0.6507640617595166"></circle><circle r="7.848907965568998" cx="326.9190779661632" cy="421.54205013961797" opacity="0.3537034939306176"></circle><circle r="8.568221447873125" cx="101.46734288615987" cy="577.8593153022567" opacity="0.9848173482068115"></circle><circle r="5.874124624305348" cx="523.2695942149787" cy="112.13776431834211" opacity="0.23613338190641245"></circle><circle r="6.859570733195717" cx="404.5773392240047" cy="17.00835910805938" opacity="0.8051954786255762"></circle><circle r="3.906466559518298" cx="717.3835891342562" cy="327.55564101701236" opacity="0.16516053522470697"></circle><circle r="7.51334487156105" cx="771.201770459611" cy="16.03124987134374" opacity="0.5178868547549199"></circle><circle r="5.929186529326807" cx="651.563353251" cy="217.3152964979987" opacity="0.42704313135545025"></circle><circle r="4.002338048153513" cx="271.53171238579824" cy="527.1903249242406" opacity="0.9853136348395363"></circle><circle r="6.301586455922633" cx="655.7981142863727" cy="91.65112830003773" opacity="0.9991883761610139"></circle><circle r="6.980448709206194" cx="508.3288737204394" cy="589.4262460323876" opacity="0.47908413886133816"></circle><circle r="6.355556461737932" cx="426.92757892485145" cy="484.2870843512528" opacity="0.9657663642115462"></circle><circle r="5.940071775093115" cx="731.8707416474199" cy="399.9107738650363" opacity="0.10324928787727554"></circle><circle r="4.283459818537088" cx="412.12326941898255" cy="640.2406915776774" opacity="0.13091392005720465"></circle><circle r="4.850439294782749" cx="484.09825180137386" cy="575.1642700544965" opacity="0.5409085648971598"></circle><circle r="5.875238748559269" cx="110.72262130430698" cy="638.0654193575954" opacity="0.8814180836091613"></circle><circle r="3.9400788823457797" cx="120.58362060348516" cy="158.5419699482414" opacity="0.7882780276581247"></circle><circle r="6.441758661138325" cx="282.5442498948318" cy="301.75019625299825" opacity="0.49898082411103095"></circle><circle r="7.242497678019362" cx="550.9246237544191" cy="90.11040272901354" opacity="0.8700413316849404"></circle><circle r="6.260651619670016" cx="613.9363420824309" cy="431.35604387113324" opacity="0.4588433616950016"></circle><circle r="8.689205208490344" cx="650.6126657172377" cy="132.00601354912925" opacity="0.7826540348066359"></circle><circle r="3.6264916143336237" cx="673.9391949256591" cy="633.7277010102209" opacity="0.11422410105232624"></circle><circle r="4.947811574985542" cx="106.66378044124971" cy="710.5386087840005" opacity="0.15236036711955023"></circle><circle r="4.411601758340243" cx="479.76478760344406" cy="18.343799062113614" opacity="0.9079994362482117"></circle><circle r="6.5149410209795455" cx="159.84044914588137" cy="495.03720775160645" opacity="0.45918445527093477"></circle><circle r="6.071804696294246" cx="743.4321859496758" cy="293.4712494064807" opacity="0.6861202904240379"></circle><circle r="5.57822366447012" cx="179.28810245746388" cy="76.52262266729302" opacity="0.19930364677955575"></circle><circle r="5.6457333663005915" cx="517.6723091632117" cy="39.625024855038184" opacity="0.8088453943217535"></circle><circle r="4.330671952888085" cx="398.5809556420716" cy="48.849408097780696" opacity="0.18987182313084155"></circle><circle r="4.5448248314445685" cx="125.46962519076524" cy="685.0986988885363" opacity="0.48301795271793724"></circle><circle r="5.266024934162704" cx="758.2730581270512" cy="525.6542563075803" opacity="0.7084389881464226"></circle><circle r="6.29798835195721" cx="201.89748554982174" cy="293.88555267291144" opacity="0.6587851717021488"></circle><circle r="5.570664245533973" cx="307.888081212746" cy="628.6999748857965" opacity="0.4575347862448479"></circle><circle r="5.9039327293931665" cx="782.6816083625667" cy="778.9759794137739" opacity="0.14201836013776464"></circle><circle r="5.91064543822522" cx="52.82476439017797" cy="200.726118230193" opacity="0.8341577660930182"></circle><circle r="6.194345488993696" cx="284.1193404766601" cy="599.7858115578767" opacity="0.38452577513152353"></circle><circle r="5.238330191210769" cx="671.6284707010408" cy="447.4274797923952" opacity="0.854864098884895"></circle><circle r="3.741185868499098" cx="498.01325675697984" cy="318.32083556827126" opacity="0.8706548943235183"></circle><circle r="7.1032884072077405" cx="176.0396565473803" cy="381.38050653277895" opacity="0.7682651622935687"></circle><circle r="3.4117430987150126" cx="177.1739695087671" cy="245.7054139175178" opacity="0.7861861087573185"></circle><circle r="5.7662279592932535" cx="240.79526584328093" cy="531.3277961671481" opacity="0.8562406907495977"></circle><circle r="6.577859304390693" cx="583.2452304753424" cy="739.7858567440794" opacity="0.5848237039629298"></circle><circle r="4.795689597278686" cx="304.88040516221304" cy="523.1703835751152" opacity="0.29413759074758206"></circle><circle r="8.731959346529194" cx="650.472536781086" cy="604.8724879393876" opacity="0.8572033536135019"></circle><circle r="5.804189737080614" cx="590.1465732203432" cy="418.7232642185789" opacity="0.9158315451917939"></circle><circle r="4.163721071455468" cx="673.1284655594155" cy="418.2292354299044" opacity="0.40945147335331633"></circle><circle r="6.0963032297282655" cx="370.09024888702186" cy="382.4596378309806" opacity="0.8421617385946598"></circle><circle r="4.484802879213718" cx="622.4266664656943" cy="87.01802463526981" opacity="0.6370302835600061"></circle><circle r="5.034659800581518" cx="177.5576845290039" cy="433.09019491950784" opacity="0.7543732991663215"></circle><circle r="5.267885707312285" cx="587.1812725373946" cy="211.45742952425542" opacity="0.9700669928565154"></circle><circle r="9.20418702967752" cx="502.4279451326578" cy="539.7603364875525" opacity="0.12002841632353764"></circle><circle r="6.987997394094489" cx="621.8561266327406" cy="358.5774832882103" opacity="0.9444141102914917"></circle><circle r="8.407477200406143" cx="83.91519951754243" cy="671.1239870424378" opacity="0.989615305238811"></circle><circle r="7.252559509022875" cx="433.4642008680152" cy="719.3182851561942" opacity="0.2701104406865248"></circle><circle r="6.058063092310576" cx="787.5218549716061" cy="106.27308488781517" opacity="0.17285535676316735"></circle><circle r="5.483462071837609" cx="767.0955210917039" cy="637.6664114318808" opacity="0.8061994442983381"></circle><circle r="6.243046532932929" cx="113.71168926864027" cy="405.21037294511206" opacity="0.5059614131751778"></circle><circle r="3.9116609045587825" cx="341.7280119511902" cy="218.6069721606082" opacity="0.20460355597176705"></circle><circle r="5.619115722312609" cx="245.48168036547435" cy="29.264245102442604" opacity="0.25415293469589373"></circle><circle r="2.9735568587079015" cx="641.3727151693348" cy="243.6235259446827" opacity="0.11857756739579096"></circle><circle r="6.397573875400392" cx="299.209153278223" cy="495.2255988397022" opacity="0.5386066093892209"></circle><circle r="7.989520501515641" cx="97.19738508864131" cy="751.0559367365755" opacity="0.6360162791976945"></circle><circle r="7.148833738594296" cx="231.40218033809634" cy="70.44614442449475" opacity="0.38555953459534464"></circle><circle r="4.261820624842883" cx="32.049721586803315" cy="788.8114076157565" opacity="0.12660041027770066"></circle><circle r="7.0954247878727195" cx="14.768355130447004" cy="297.90976418522644" opacity="0.5462385980028494"></circle><circle r="4.1499012213124065" cx="358.53444068076845" cy="328.75488842583115" opacity="0.41474504715647054"></circle><circle r="5.796229507230964" cx="45.85626064981454" cy="623.2834160793278" opacity="0.917682033179973"></circle><circle r="9.739118338642118" cx="769.2354706318264" cy="157.10962888453588" opacity="0.2171154071202615"></circle><circle r="6.8743428788718015" cx="16.2488039583375" cy="138.75562930231416" opacity="0.9581420323332436"></circle><circle r="7.502536919141379" cx="462.71881476955286" cy="773.1221360408501" opacity="0.1577853267456449"></circle><circle r="4.6964368916319055" cx="326.89694749507834" cy="378.7669841795905" opacity="0.8670391117878352"></circle><circle r="5.584638325951009" cx="280.5634055632744" cy="332.15707737189274" opacity="0.4359760625388849"></circle><circle r="3.459079808699992" cx="86.05537785662898" cy="636.220122251213" opacity="0.45865631907861126"></circle><circle r="4.554437341821066" cx="131.50066845344477" cy="739.4355185856605" opacity="0.7024530750142045"></circle><circle r="4.850773145588881" cx="502.6176628385617" cy="782.3903104945811" opacity="0.5586158172065402"></circle><circle r="7.199233762381688" cx="458.1455092296199" cy="602.156315200219" opacity="0.7143957019034486"></circle><circle r="6.063359456699663" cx="465.82349525096055" cy="349.3673825456662" opacity="0.4047530761843592"></circle><circle r="3.042643592311855" cx="187.85333362999702" cy="272.75625380160955" opacity="0.1471993205721671"></circle><circle r="6.254788482096938" cx="433.6711883536184" cy="71.50902729677802" opacity="0.7730359276618897"></circle><circle r="7.298975225483616" cx="363.40755458946063" cy="447.17626704235926" opacity="0.8063428748841519"></circle><circle r="6.405945714534045" cx="490.6957873635657" cy="385.1537797460341" opacity="0.9829368477162755"></circle><circle r="7.488864448384345" cx="742.9043085175588" cy="366.79097233269226" opacity="0.893459426149184"></circle><circle r="7.116843807292655" cx="62.88684429611709" cy="571.0504431900439" opacity="0.10484377372702659"></circle><circle r="4.325384513918227" cx="786.0901202257096" cy="516.8993750131191" opacity="0.9646077944838864"></circle><circle r="3.4699188796199203" cx="63.760389040516046" cy="460.120079962979" opacity="0.5436263713026434"></circle><circle r="3.8679720645524363" cx="596.3163873609059" cy="336.28056137817987" opacity="0.5630233068346004"></circle><circle r="4.431734151156867" cx="568.4837625627117" cy="433.31987309668244" opacity="0.13587853175653888"></circle><circle r="5.385870194734727" cx="202.89164722815568" cy="242.88862950072127" opacity="0.41990886706695585"></circle><circle r="5.17603274986704" cx="425.8094024291779" cy="105.1223194161599" opacity="0.24331734403539004"></circle><circle r="4.529536724268352" cx="398.4687188369306" cy="468.9152705140767" opacity="0.39022817029385104"></circle><circle r="6.787704719924545" cx="475.2826722966082" cy="635.816112585277" opacity="0.7453928214160662"></circle><circle r="4.566079210040999" cx="134.4683216905607" cy="303.44541963402764" opacity="0.3619154041789743"></circle><circle r="6.559164471405795" cx="537.432871983845" cy="15.833061403188717" opacity="0.5494245808291247"></circle><circle r="4.453278023009816" cx="18.58293290640606" cy="210.08351179442477" opacity="0.506781697281474"></circle><circle r="5.921414541771654" cx="694.6714910041409" cy="84.63591782982478" opacity="0.8980378451643952"></circle><circle r="5.379366973304855" cx="612.8469107985804" cy="66.5452885967272" opacity="0.19538563001737047"></circle><circle r="1.7340530504100242" cx="704.5160436851427" cy="274.1122891312753" opacity="0.40149146901468924"></circle><circle r="6.70237754838892" cx="711.0859629078557" cy="645.4997857948699" opacity="0.9354113416864924"></circle><circle r="6.141592961320604" cx="751.8901561520668" cy="763.8026855896353" opacity="0.104553321766723"></circle><circle r="2.5218773573385302" cx="25.419188032182316" cy="465.5953901535905" opacity="0.7389314241594706"></circle><circle r="6.699266487054994" cx="358.211223763224" cy="409.9880984631172" opacity="0.23572991094184081"></circle><circle r="8.31163782205351" cx="493.9045920997173" cy="497.4842107201387" opacity="0.2340637031193025"></circle><circle r="5.332048800383185" cx="343.2478559310363" cy="784.6676982365033" opacity="0.5808006637554008"></circle><circle r="7.384109123755861" cx="456.05204992152096" cy="196.51291814107512" opacity="0.21657540518608692"></circle></g></svg>