<svg xmlns="http://www.w3.org/2000/svg" version="1.1" xmlns:xlink="http://www.w3.org/1999/xlink" xmlns:svgjs="http://svgjs.dev/svgjs" viewBox="0 0 640 800"><g stroke-width="3" stroke="#fef6e4" fill="none" stroke-linecap="square"><line x1="72" y1="0" x2="0" y2="72"></line><line x1="72" y1="0" x2="144" y2="72"></line><line x1="216" y1="0" x2="144" y2="72"></line><line x1="216" y1="0" x2="288" y2="72"></line><line x1="360" y1="0" x2="288" y2="72"></line><line x1="432" y1="0" x2="360" y2="72"></line><line x1="504" y1="0" x2="432" y2="72"></line><line x1="576" y1="0" x2="504" y2="72"></line><line x1="576" y1="0" x2="648" y2="72"></line><line x1="72" y1="72" x2="0" y2="144"></line><line x1="144" y1="72" x2="72" y2="144"></line><line x1="216" y1="72" x2="144" y2="144"></line><line x1="216" y1="72" x2="288" y2="144"></line><line x1="360" y1="72" x2="288" y2="144"></line><line x1="360" y1="72" x2="432" y2="144"></line><line x1="432" y1="72" x2="504" y2="144"></line><line x1="504" y1="72" x2="576" y2="144"></line><line x1="648" y1="72" x2="576" y2="144"></line><line x1="72" y1="144" x2="0" y2="216"></line><line x1="144" y1="144" x2="72" y2="216"></line><line x1="144" y1="144" x2="216" y2="216"></line><line x1="216" y1="144" x2="288" y2="216"></line><line x1="360" y1="144" x2="288" y2="216"></line><line x1="360" y1="144" x2="432" y2="216"></line><line x1="432" y1="144" x2="504" y2="216"></line><line x1="576" y1="144" x2="504" y2="216"></line><line x1="576" y1="144" x2="648" y2="216"></line><line x1="0" y1="216" x2="72" y2="288"></line><line x1="144" y1="216" x2="72" y2="288"></line><line x1="144" y1="216" x2="216" y2="288"></line><line x1="216" y1="216" x2="288" y2="288"></line><line x1="360" y1="216" x2="288" y2="288"></line><line x1="432" y1="216" x2="360" y2="288"></line><line x1="432" y1="216" x2="504" y2="288"></line><line x1="576" y1="216" x2="504" y2="288"></line><line x1="648" y1="216" x2="576" y2="288"></line><line x1="72" y1="288" x2="0" y2="360"></line><line x1="72" y1="288" x2="144" y2="360"></line><line x1="144" y1="288" x2="216" y2="360"></line><line x1="288" y1="288" x2="216" y2="360"></line><line x1="288" y1="288" x2="360" y2="360"></line><line x1="360" y1="288" x2="432" y2="360"></line><line x1="432" y1="288" x2="504" y2="360"></line><line x1="576" y1="288" x2="504" y2="360"></line><line x1="576" y1="288" x2="648" y2="360"></line><line x1="72" y1="360" x2="0" y2="432"></line><line x1="72" y1="360" x2="144" y2="432"></line><line x1="144" y1="360" x2="216" y2="432"></line><line x1="216" y1="360" x2="288" y2="432"></line><line x1="288" y1="360" x2="360" y2="432"></line><line x1="360" y1="360" x2="432" y2="432"></line><line x1="504" y1="360" x2="432" y2="432"></line><line x1="504" y1="360" x2="576" y2="432"></line><line x1="576" y1="360" x2="648" y2="432"></line><line x1="0" y1="432" x2="72" y2="504"></line><line x1="72" y1="432" x2="144" y2="504"></line><line x1="144" y1="432" x2="216" y2="504"></line><line x1="216" y1="432" x2="288" y2="504"></line><line x1="360" y1="432" x2="288" y2="504"></line><line x1="360" y1="432" x2="432" y2="504"></line><line x1="504" y1="432" x2="432" y2="504"></line><line x1="576" y1="432" x2="504" y2="504"></line><line x1="648" y1="432" x2="576" y2="504"></line><line x1="0" y1="504" x2="72" y2="576"></line><line x1="72" y1="504" x2="144" y2="576"></line><line x1="144" y1="504" x2="216" y2="576"></line><line x1="216" y1="504" x2="288" y2="576"></line><line x1="288" y1="504" x2="360" y2="576"></line><line x1="432" y1="504" x2="360" y2="576"></line><line x1="432" y1="504" x2="504" y2="576"></line><line x1="504" y1="504" x2="576" y2="576"></line><line x1="648" y1="504" x2="576" y2="576"></line><line x1="72" y1="576" x2="0" y2="648"></line><line x1="72" y1="576" x2="144" y2="648"></line><line x1="216" y1="576" x2="144" y2="648"></line><line x1="216" y1="576" x2="288" y2="648"></line><line x1="288" y1="576" x2="360" y2="648"></line><line x1="360" y1="576" x2="432" y2="648"></line><line x1="432" y1="576" x2="504" y2="648"></line><line x1="576" y1="576" x2="504" y2="648"></line><line x1="576" y1="576" x2="648" y2="648"></line><line x1="0" y1="648" x2="72" y2="720"></line><line x1="144" y1="648" x2="72" y2="720"></line><line x1="144" y1="648" x2="216" y2="720"></line><line x1="216" y1="648" x2="288" y2="720"></line><line x1="288" y1="648" x2="360" y2="720"></line><line x1="432" y1="648" x2="360" y2="720"></line><line x1="432" y1="648" x2="504" y2="720"></line><line x1="504" y1="648" x2="576" y2="720"></line><line x1="648" y1="648" x2="576" y2="720"></line><line x1="0" y1="720" x2="72" y2="792"></line><line x1="144" y1="720" x2="72" y2="792"></line><line x1="144" y1="720" x2="216" y2="792"></line><line x1="216" y1="720" x2="288" y2="792"></line><line x1="288" y1="720" x2="360" y2="792"></line><line x1="360" y1="720" x2="432" y2="792"></line><line x1="432" y1="720" x2="504" y2="792"></line><line x1="576" y1="720" x2="504" y2="792"></line><line x1="576" y1="720" x2="648" y2="792"></line><line x1="0" y1="792" x2="72" y2="864"></line><line x1="144" y1="792" x2="72" y2="864"></line><line x1="144" y1="792" x2="216" y2="864"></line><line x1="216" y1="792" x2="288" y2="864"></line><line x1="288" y1="792" x2="360" y2="864"></line><line x1="432" y1="792" x2="360" y2="864"></line><line x1="432" y1="792" x2="504" y2="864"></line><line x1="504" y1="792" x2="576" y2="864"></line><line x1="648" y1="792" x2="576" y2="864"></line></g></svg>