<?xml version="1.0" encoding="UTF-8" standalone="no"?><!DOCTYPE svg PUBLIC "-//W3C//DTD SVG 1.1//EN" "http://www.w3.org/Graphics/SVG/1.1/DTD/svg11.dtd"><svg width="100%" height="100%" viewBox="0 0 321 330" version="1.1" xmlns="http://www.w3.org/2000/svg" xmlns:xlink="http://www.w3.org/1999/xlink" xml:space="preserve" xmlns:serif="http://www.serif.com/" style="fill-rule:evenodd;clip-rule:evenodd;stroke-linecap:round;stroke-linejoin:round;stroke-miterlimit:1.5;"><rect id="Final" x="0.155" y="1.416" width="320.617" height="326.743" style="fill:none;"/><clipPath id="_clip1"><rect x="0.155" y="1.416" width="320.617" height="326.743"/></clipPath><g clip-path="url(#_clip1)"><g id="Ve.coinz"><rect x="57.751" y="60.084" width="208.333" height="208.333"/><rect x="0.155" y="1.416" width="320.617" height="326.743" style="stroke:#f8aaf7;stroke-width:2.08px;"/><g id="vintage"><path d="M100.19,117.941c-0,0 9.47,-19.149 12.201,-12.232c1.391,3.521 -3.554,21.79 -4.726,25.772c-1.068,3.631 -7.475,-13.54 -7.475,-13.54Z" style="fill:#f8aaf7;stroke:#f8aaf7;stroke-width:2.08px;"/><path d="M120.165,127.335c-2.765,0.143 -3.086,-26.033 -1.165,-27.634c1.438,-1.199 9.629,9.515 13.937,14.658c2.02,2.411 4.033,-16.648 5.154,-16.003c2.814,1.618 6.595,27.987 4.522,28.979c-4.398,2.103 -20.255,-13.05 -20.358,-13.01c-1.647,0.645 10.441,18.407 5.916,15.97c-6.714,-3.617 -8.006,-2.96 -8.006,-2.96Z" style="fill:#f8aaf7;stroke:#f8aaf7;stroke-width:2.08px;"/><path d="M140.484,90.803c-0,-0 4.248,12.246 7.552,10.001c3.304,-2.245 -0.318,16.769 -0.498,18.062c-0.18,1.294 7.583,2.724 7.834,1.825c0.251,-0.899 0.614,-20.859 0.17,-19.887c-0.444,0.972 6.973,-1.779 7.735,-1.231c0.762,0.549 0.591,-5.805 0,-6.718c-0.59,-0.914 -22.904,-1.812 -22.793,-2.052Z" style="fill:#f8aaf7;stroke:#f8aaf7;stroke-width:2.08px;"/><path d="M80.25,87.136c-5.779,5.341 -1.704,48.025 1.122,47.583c-0,0 26.424,-27.734 21.079,-48.413c-8.763,8.065 -15.276,24.896 -15.276,24.896c-1.915,-7.725 -4.045,-26.729 -6.925,-24.066Z" style="fill:#f8aaf7;stroke:#f8aaf7;stroke-width:2.08px;"/><path d="M204.049,96.135c2.385,-13.831 -20.751,-0.034 -23.889,4.066c-3.539,4.622 11.087,48.963 28.074,27.099c19.374,-24.937 -20.348,-18.629 -9.781,-13.44c9.199,4.516 0.026,16.922 -8.879,-4.551c-4.629,-11.162 13.267,-6.17 14.475,-13.174Z" style="fill:#f8aaf7;stroke:#f8aaf7;stroke-width:2.08px;"/><path d="M225.703,117.096c6.979,-0.841 15.103,0.397 11.901,-6.669c-0.464,-1.024 -7.07,-0.431 -11.925,1.008l2.197,-8.509c-1.155,-1.612 16.393,1.57 15.685,-0.268c-2.109,-5.481 -20.907,-10.277 -20.907,-10.277c0,-0 -6.388,34.602 -4.586,37.427c1.802,2.826 29.641,0 29.641,0c-0,0 -0.474,-8.38 -19.483,-6.558c-4.213,0.403 -2.968,-3.002 -2.523,-6.154Z" style="fill:#f8aaf7;stroke:#f8aaf7;stroke-width:2.08px;"/><path d="M113.363,92.285c-7.882,2.091 -2.886,9.471 -0,8.686c2.885,-0.786 3.886,-9.716 -0,-8.686Z" style="fill:#f8aaf7;stroke:#f8aaf7;stroke-width:2.08px;"/><path d="M161.4,128.434c-0,0 1.569,-27.712 6.245,-27.082c4.676,0.631 17.117,25.193 15.831,28.453c-1.286,3.26 -12.623,-7.368 -12.377,-8.853c0.245,-1.485 -3.136,-1.658 -3.775,-0.107c-0.638,1.55 0.361,22.209 -5.924,7.589Zm8.482,-18.54c-3.281,0.1 -3.571,1.793 -3.041,3.462c0.53,1.669 1.88,3.313 1.88,3.313c0.908,-0.378 9.84,-7.037 1.161,-6.775Z" style="fill:#f8aaf7;stroke:#f8aaf7;stroke-width:2.08px;"/></g><g id="clothing"><path d="M185.496,173.45c-0,0 4.424,-23.234 7.441,-16.479c1.536,3.439 0.383,24.517 0.061,29.136c-0.294,4.211 -7.502,-12.657 -7.502,-12.657Z" style="fill:#f8aaf7;stroke:#f8aaf7;stroke-width:2.08px;"/><path d="M202.184,183.493c-2.448,0.185 -2.732,-33.565 -1.032,-35.629c1.274,-1.546 8.525,12.268 12.34,18.899c1.787,3.108 3.475,-21.011 4.562,-20.633c4.26,1.481 8.042,35.33 4.003,37.363c-4.038,2.032 -17.932,-16.825 -18.023,-16.773c-1.458,0.831 9.405,23.077 5.238,20.589c-6.613,-3.947 -7.757,-3.101 -7.088,-3.816Z" style="fill:#f8aaf7;stroke:#f8aaf7;stroke-width:2.08px;"/><path d="M134.494,147.034c0,0 3.452,10.971 6.175,8.705c4.126,-3.432 6.408,19.089 5.727,20.728c-0.467,1.122 7.052,1.724 7.078,0.703c0.027,-1.021 -3.84,-22.837 -4.016,-21.705c-0.176,1.133 5.588,-3.084 6.355,-2.611c0.766,0.473 -0.71,-6.424 -1.406,-7.323c-0.696,-0.899 -19.958,1.783 -19.913,1.503Z" style="fill:#f8aaf7;stroke:#f8aaf7;stroke-width:2.08px;"/><path d="M242.968,150.378c0.197,-12.46 -15.89,1.897 -17.094,3.887c-1.204,1.99 4.688,45.13 19.145,27.443c16.328,-19.979 -5.087,-26.212 -6.015,-15.665c-1.011,11.502 0.295,5.424 2.227,5.3c7.7,-0.496 -1.892,19.129 -8.925,-3.357c-3.74,-11.958 10.588,-12.98 10.662,-17.608Z" style="fill:#f8aaf7;stroke:#f8aaf7;stroke-width:2.08px;"/><path d="M80.358,147.604c-7.129,16.12 -1.021,41.422 11.153,36.415c12.175,-5.006 10.564,-16.221 8.635,-16.469c-1.93,-0.248 -11.126,3.165 -12.073,3.476c-0.933,0.307 -8.253,-13.558 5.464,-16.325c16.447,-3.318 -6.754,-21.628 -13.179,-7.097Z" style="fill:#f8aaf7;stroke:#f8aaf7;stroke-width:2.08px;"/><path d="M107.549,145.545c0,0 -1.251,33.995 -1.631,37.647c-0.506,4.865 16.122,-1.253 19.206,-1.655c-4.428,-8.467 -17.751,2.913 -13.717,-5.511c2.887,-6.029 1.305,-34.008 -3.858,-30.481Z" style="fill:#f8aaf7;stroke:#f8aaf7;stroke-width:2.08px;"/><path d="M162.761,146.175c0.01,6.744 -6.447,32.296 -4.221,34.256c1.572,1.383 5.342,2.958 6.373,1.018c0.777,-1.461 -0.745,-18.31 1.589,-15.061c2.334,3.248 9.385,-0.34 9.385,-0.34c0,-0 -0.533,13.777 0.031,15.003c0.784,1.705 5.536,1.186 5.735,-0.208l0.296,-35.602c-0.837,-2.094 -5.05,-3.126 -6.245,0.077c-1.029,2.76 1.476,13.684 -1.261,15.268c-3.646,2.111 -6.83,-1.357 -6.29,-0.531l0.17,-13.897c-1.26,-2.322 -5.565,-2.057 -5.562,0.017Z" style="fill:#f8aaf7;stroke:#f8aaf7;stroke-width:2.08px;"/><path d="M192.011,142.858c-4.633,1.787 -1.696,8.095 0,7.424c1.696,-0.672 2.285,-8.305 0,-7.424Z" style="fill:#f8aaf7;stroke:#f8aaf7;stroke-width:2.08px;"/><path d="M126.856,152.65c-6.492,-0.229 -8.198,9.695 -8.409,13.45c-0.29,5.146 4.385,9.837 8.296,9.753c3.783,-0.081 10.515,-5.45 9.959,-10.443c-0.414,-3.727 -3.22,-12.525 -9.846,-12.76Zm1.514,7.768c-3.68,0.917 -4.354,2.993 -3.771,4.754c0.583,1.761 2.424,3.207 3.771,2.863c2.695,-0.689 3.63,-8.521 0,-7.617Z" style="fill:#f8aaf7;stroke:#f8aaf7;stroke-width:2.08px;"/></g><g id="_.co.nz" serif:id=".co.nz"><path d="M178.509,234.295c-3.158,0.192 -3.284,-34.827 -1.09,-36.97c1.643,-1.606 10.999,12.739 15.92,19.624c2.306,3.227 4.584,-22.227 5.887,-21.425c3.798,2.338 8.624,37.51 5.164,38.796c-5.245,1.949 -20.017,-14.7 -20.134,-14.646c-1.881,0.863 9.038,21.103 3.638,18.609c-7.277,-3.363 -9.277,-3.995 -9.385,-3.988Z" style="fill:#f8aaf7;stroke:#f8aaf7;stroke-width:2.08px;"/><path d="M96.444,198.155c-14.41,12.623 -13.6,39.293 8.99,39.259c16.095,-0.024 16.313,-6.452 17.144,-7.282c1.75,-1.749 -2.947,-10.283 -6.994,-5.97c-12.663,13.494 -27.652,-21.093 -1.758,-19.582c7.68,0.448 5.017,-4.996 3.566,-7.111c-2.641,-3.851 -14.137,-5.28 -20.948,0.686Z" style="fill:#f8aaf7;stroke:#f8aaf7;stroke-width:2.08px;"/><path d="M166.904,226.183c-4.725,0.685 -4.779,7.984 -0,7.319c4.332,-0.604 3.617,-7.844 -0,-7.319Z" style="fill:#f8aaf7;stroke:#f8aaf7;stroke-width:2.08px;"/><path d="M141.02,197.187c-11.571,-0.399 -14.612,16.842 -14.989,23.366c-0.516,8.941 7.817,17.092 14.788,16.945c6.743,-0.141 18.742,-9.469 17.752,-18.143c-0.739,-6.476 -5.74,-21.761 -17.551,-22.168Zm2.261,14.295c-9.016,2.799 -3.3,12.679 0,11.628c1.664,-0.53 2.781,-3.832 2.909,-6.8c0.125,-2.918 -0.705,-5.512 -2.909,-4.828Z" style="fill:#f8aaf7;stroke:#f8aaf7;stroke-width:2.08px;"/><path d="M80.884,228.211c-4.725,0.685 -4.779,7.985 0,7.319c4.333,-0.603 3.617,-7.843 0,-7.319Z" style="fill:#f8aaf7;stroke:#f8aaf7;stroke-width:2.08px;"/><path d="M212.868,197.493c-0,-0 -6.611,13.873 6.998,9.485c4.665,-1.504 11.976,-1.863 9.507,0.192c-8.649,7.196 -22.867,24.615 -18.318,25.322c2.174,0.338 23.942,3.001 24.339,3.989c0.885,2.203 10.519,-10.381 8.446,-13.637c-4.198,-6.594 -23.325,4.855 -19.679,1.4c3.646,-3.454 22.475,-20.418 22.353,-21.401c-0.634,-5.108 -33.646,-5.35 -33.646,-5.35Z" style="fill:#f8aaf7;stroke:#f8aaf7;stroke-width:2.08px;"/></g></g></g></svg>