<?xml version="1.0" encoding="UTF-8" standalone="no"?><!DOCTYPE svg PUBLIC "-//W3C//DTD SVG 1.1//EN" "http://www.w3.org/Graphics/SVG/1.1/DTD/svg11.dtd"><svg width="100%" height="100%" viewBox="0 0 323 330" version="1.1" xmlns="http://www.w3.org/2000/svg" xmlns:xlink="http://www.w3.org/1999/xlink" xml:space="preserve" xmlns:serif="http://www.serif.com/" style="fill-rule:evenodd;clip-rule:evenodd;stroke-linecap:round;stroke-linejoin:round;stroke-miterlimit:1.5;"><rect id="Final-white-i" serif:id="Final white i" x="2.072" y="1.416" width="320.617" height="326.743" style="fill:none;"/><clipPath id="_clip1"><rect x="2.072" y="1.416" width="320.617" height="326.743"/></clipPath><g clip-path="url(#_clip1)"><g id="Ve.coinz"><rect x="2.072" y="1.416" width="320.617" height="326.743" style="fill:none;"/><g id="vintage"><path d="M102.107,117.941c0,0 9.47,-19.149 12.202,-12.232c1.39,3.521 -3.554,21.79 -4.726,25.772c-1.069,3.631 -7.476,-13.54 -7.476,-13.54Z" style="fill:#f582ae;stroke:#f582ae;stroke-width:2.08px;"/><path d="M122.083,127.335c-2.765,0.143 -3.086,-26.033 -1.166,-27.634c1.439,-1.199 9.63,9.515 13.938,14.658c2.02,2.411 4.033,-16.648 5.154,-16.003c2.813,1.618 6.595,27.987 4.521,28.979c-4.397,2.103 -20.255,-13.05 -20.357,-13.01c-1.647,0.645 10.44,18.407 5.916,15.97c-6.714,-3.617 -8.006,-2.96 -8.006,-2.96Z" style="fill:#f582ae;stroke:#f582ae;stroke-width:2.08px;"/><path d="M142.402,90.803c-0,-0 4.248,12.246 7.552,10.001c3.304,-2.245 -0.318,16.769 -0.498,18.062c-0.18,1.294 7.583,2.724 7.834,1.825c0.251,-0.899 0.613,-20.859 0.169,-19.887c-0.444,0.972 6.974,-1.779 7.736,-1.231c0.762,0.549 0.59,-5.805 -0,-6.718c-0.59,-0.914 -22.905,-1.812 -22.793,-2.052Z" style="fill:#f582ae;stroke:#f582ae;stroke-width:2.08px;"/><path d="M82.167,87.136c-5.778,5.341 -1.703,48.025 1.122,47.583c0,0 26.425,-27.734 21.08,-48.413c-8.764,8.065 -15.276,24.896 -15.276,24.896c-1.915,-7.725 -4.046,-26.729 -6.926,-24.066Z" style="fill:#f582ae;stroke:#f582ae;stroke-width:2.08px;"/><path d="M205.966,96.135c2.386,-13.831 -20.75,-0.034 -23.889,4.066c-3.538,4.622 11.087,48.963 28.075,27.099c19.374,-24.937 -20.348,-18.629 -9.781,-13.44c9.198,4.516 0.026,16.922 -8.879,-4.551c-4.629,-11.162 13.266,-6.17 14.474,-13.174Z" style="fill:#f582ae;stroke:#f582ae;stroke-width:2.08px;"/><path d="M227.62,117.096c6.98,-0.841 15.104,0.397 11.901,-6.669c-0.464,-1.024 -7.07,-0.431 -11.925,1.008l2.198,-8.509c-1.155,-1.612 16.392,1.57 15.685,-0.268c-2.11,-5.481 -20.907,-10.277 -20.907,-10.277c-0,-0 -6.388,34.602 -4.586,37.427c1.802,2.826 29.64,0 29.64,0c0,0 -0.474,-8.38 -19.483,-6.558c-4.212,0.403 -2.967,-3.002 -2.523,-6.154Z" style="fill:#f582ae;stroke:#f582ae;stroke-width:2.08px;"/><path d="M115.28,92.285c-7.881,2.091 -2.885,9.471 0,8.686c2.886,-0.786 3.887,-9.716 0,-8.686Z" style="fill:#f582ae;stroke:#f582ae;stroke-width:2.08px;"/><path d="M163.317,128.434c0,0 1.569,-27.712 6.245,-27.082c4.676,0.631 17.118,25.193 15.832,28.453c-1.286,3.26 -12.623,-7.368 -12.378,-8.853c0.246,-1.485 -3.135,-1.658 -3.774,-0.107c-0.639,1.55 0.361,22.209 -5.925,7.589Zm8.483,-18.54c-3.281,0.1 -3.572,1.793 -3.042,3.462c0.53,1.669 1.881,3.313 1.881,3.313c0.908,-0.378 9.839,-7.037 1.161,-6.775Z" style="fill:#f582ae;stroke:#f582ae;stroke-width:2.08px;"/></g><g id="clothing"><path d="M187.413,173.45c0,0 4.425,-23.234 7.441,-16.479c1.536,3.439 0.383,24.517 0.061,29.136c-0.293,4.211 -7.502,-12.657 -7.502,-12.657Z" style="fill:#f582ae;stroke:#f582ae;stroke-width:2.08px;"/><path d="M204.101,183.493c-2.447,0.185 -2.731,-33.565 -1.031,-35.629c1.273,-1.546 8.525,12.268 12.339,18.899c1.788,3.108 3.476,-21.011 4.563,-20.633c4.26,1.481 8.042,35.33 4.003,37.363c-4.039,2.032 -17.932,-16.825 -18.023,-16.773c-1.458,0.831 9.405,23.077 5.237,20.589c-6.613,-3.947 -7.756,-3.101 -7.088,-3.816Z" style="fill:#f582ae;stroke:#f582ae;stroke-width:2.08px;"/><path d="M136.412,147.034c-0,0 3.452,10.971 6.175,8.705c4.125,-3.432 6.407,19.089 5.726,20.728c-0.466,1.122 7.052,1.724 7.079,0.703c0.026,-1.021 -3.84,-22.837 -4.016,-21.705c-0.177,1.133 5.588,-3.084 6.354,-2.611c0.767,0.473 -0.71,-6.424 -1.405,-7.323c-0.696,-0.899 -19.958,1.783 -19.913,1.503Z" style="fill:#f582ae;stroke:#f582ae;stroke-width:2.08px;"/><path d="M244.885,150.378c0.198,-12.46 -15.89,1.897 -17.094,3.887c-1.204,1.99 4.689,45.13 19.145,27.443c16.329,-19.979 -5.086,-26.212 -6.014,-15.665c-1.012,11.502 0.295,5.424 2.226,5.3c7.7,-0.496 -1.892,19.129 -8.924,-3.357c-3.741,-11.958 10.588,-12.98 10.661,-17.608Z" style="fill:#f582ae;stroke:#f582ae;stroke-width:2.08px;"/><path d="M82.275,147.604c-7.128,16.12 -1.021,41.422 11.154,36.415c12.174,-5.006 10.564,-16.221 8.635,-16.469c-1.93,-0.248 -11.126,3.165 -12.073,3.476c-0.933,0.307 -8.254,-13.558 5.464,-16.325c16.446,-3.318 -6.754,-21.628 -13.18,-7.097Z" style="fill:#f582ae;stroke:#f582ae;stroke-width:2.08px;"/><path d="M109.467,145.545c-0,0 -1.251,33.995 -1.631,37.647c-0.507,4.865 16.122,-1.253 19.206,-1.655c-4.428,-8.467 -17.752,2.913 -13.717,-5.511c2.886,-6.029 1.304,-34.008 -3.858,-30.481Z" style="fill:#f582ae;stroke:#f582ae;stroke-width:2.08px;"/><path d="M164.678,146.175c0.01,6.744 -6.447,32.296 -4.22,34.256c1.572,1.383 5.342,2.958 6.373,1.018c0.776,-1.461 -0.746,-18.31 1.589,-15.061c2.334,3.248 9.385,-0.34 9.385,-0.34c0,-0 -0.533,13.777 0.031,15.003c0.783,1.705 5.536,1.186 5.735,-0.208l0.296,-35.602c-0.837,-2.094 -5.051,-3.126 -6.245,0.077c-1.03,2.76 1.476,13.684 -1.262,15.268c-3.646,2.111 -6.83,-1.357 -6.29,-0.531l0.171,-13.897c-1.261,-2.322 -5.566,-2.057 -5.563,0.017Z" style="fill:#f582ae;stroke:#f582ae;stroke-width:2.08px;"/><path d="M193.929,142.858c-4.633,1.787 -1.696,8.095 -0,7.424c1.696,-0.672 2.284,-8.305 -0,-7.424Z" style="fill:#f582ae;stroke:#f582ae;stroke-width:2.08px;"/><path d="M128.773,152.65c-6.491,-0.229 -8.197,9.695 -8.408,13.45c-0.29,5.146 4.385,9.837 8.296,9.753c3.783,-0.081 10.514,-5.45 9.959,-10.443c-0.415,-3.727 -3.22,-12.525 -9.847,-12.76Zm1.515,7.768c-3.681,0.917 -4.354,2.993 -3.771,4.754c0.583,1.761 2.423,3.207 3.771,2.863c2.695,-0.689 3.629,-8.521 -0,-7.617Z" style="fill:#f582ae;stroke:#f582ae;stroke-width:2.08px;"/></g><g id="_.co.nz" serif:id=".co.nz"><path d="M180.427,234.295c-3.158,0.192 -3.284,-34.827 -1.091,-36.97c1.643,-1.606 10.999,12.739 15.92,19.624c2.307,3.227 4.584,-22.227 5.887,-21.425c3.798,2.338 8.624,37.51 5.165,38.796c-5.246,1.949 -20.017,-14.7 -20.134,-14.646c-1.881,0.863 9.038,21.103 3.638,18.609c-7.278,-3.363 -9.278,-3.995 -9.385,-3.988Z" style="fill:#f582ae;stroke:#f582ae;stroke-width:2.08px;"/><path d="M98.361,198.155c-14.409,12.623 -13.599,39.293 8.991,39.259c16.094,-0.024 16.313,-6.452 17.143,-7.282c1.751,-1.749 -2.946,-10.283 -6.994,-5.97c-12.662,13.494 -27.652,-21.093 -1.757,-19.582c7.68,0.448 5.017,-4.996 3.566,-7.111c-2.642,-3.851 -14.137,-5.28 -20.949,0.686Z" style="fill:#f582ae;stroke:#f582ae;stroke-width:2.08px;"/><path d="M168.821,226.183c-4.724,0.685 -4.779,7.984 0,7.319c4.333,-0.604 3.617,-7.844 0,-7.319Z" style="fill:#f582ae;stroke:#f582ae;stroke-width:2.08px;"/><path d="M142.937,197.187c-11.57,-0.399 -14.611,16.842 -14.988,23.366c-0.517,8.941 7.817,17.092 14.788,16.945c6.743,-0.141 18.742,-9.469 17.752,-18.143c-0.739,-6.476 -5.74,-21.761 -17.552,-22.168Zm2.262,14.295c-9.016,2.799 -3.301,12.679 -0,11.628c1.664,-0.53 2.78,-3.832 2.908,-6.8c0.126,-2.918 -0.704,-5.512 -2.908,-4.828Z" style="fill:#f582ae;stroke:#f582ae;stroke-width:2.08px;"/><path d="M82.802,228.211c-4.725,0.685 -4.779,7.985 -0,7.319c4.332,-0.603 3.617,-7.843 -0,-7.319Z" style="fill:#f582ae;stroke:#f582ae;stroke-width:2.08px;"/><path d="M214.785,197.493c0,-0 -6.611,13.873 6.999,9.485c4.665,-1.504 11.976,-1.863 9.507,0.192c-8.65,7.196 -22.867,24.615 -18.318,25.322c2.174,0.338 23.942,3.001 24.339,3.989c0.885,2.203 10.519,-10.381 8.446,-13.637c-4.198,-6.594 -23.326,4.855 -19.679,1.4c3.646,-3.454 22.475,-20.418 22.353,-21.401c-0.634,-5.108 -33.647,-5.35 -33.647,-5.35Z" style="fill:#f582ae;stroke:#f582ae;stroke-width:2.08px;"/></g></g></g></svg>
